#N canvas 674 159 427 355 10;
#N canvas 593 157 1327 819 samples 0;
#N canvas 0 93 450 300 (subpatch) 0;
#X array sample1 6.89018e+06 float 0;
#X coords 0 1.02 6.89018e+06 -1.02 200 130 1;
#X restore 65 39 graph;
#N canvas 0 97 450 300 (subpatch) 0;
#X array sample2 7.01716e+06 float 0;
#X coords 0 1.02 7.01716e+06 -1.02 200 130 1;
#X restore 65 219 graph;
#N canvas 705 189 450 300 (subpatch) 0;
#X array sample3 7.42415e+06 float 0;
#X coords 0 1.02 7.42415e+06 -1.02 200 130 1;
#X restore 65 369 graph;
#N canvas 0 105 450 300 (subpatch) 0;
#X array sample4 7.22045e+06 float 0;
#X coords 0 1.02 7.22045e+06 -1.02 200 130 1;
#X restore 65 519 graph;
#N canvas 261 127 450 300 (subpatch) 0;
#X array sample5 7.509e+06 float 0;
#X coords 0 1.02 7.509e+06 -1.02 200 130 1;
#X restore 65 669 graph;
#N canvas 0 93 450 300 (subpatch) 0;
#X array sample6 7.24488e+06 float 0;
#X coords 0 1.02 7.24488e+06 -1.02 200 130 1 0 0;
#X restore 315 39 graph;
#N canvas 0 97 450 300 (subpatch) 0;
#X array sample7 6.75136e+06 float 0;
#X coords 0 1.02 6.75136e+06 -1.02 200 130 1;
#X restore 315 219 graph;
#N canvas 705 189 450 300 (subpatch) 0;
#X array sample8 7.1367e+06 float 0;
#X coords 0 1.02 7.1367e+06 -1.02 200 130 1;
#X restore 315 369 graph;
#N canvas 0 105 450 300 (subpatch) 0;
#X array sample9 6.07574e+06 float 0;
#X coords 0 1.02 6.07574e+06 -1.02 200 130 1;
#X restore 315 519 graph;
#N canvas 0 109 450 300 (subpatch) 0;
#X array sample10 7.2798e+06 float 0;
#X coords 0 1.02 7.2798e+06 -1.02 200 130 1;
#X restore 315 669 graph;
#N canvas 0 93 450 300 (subpatch) 0;
#X array sample11 6.89018e+06 float 0;
#X coords 0 1.02 6.89018e+06 -1.02 200 130 1;
#X restore 565 39 graph;
#N canvas 0 97 450 300 (subpatch) 0;
#X array sample12 7.01716e+06 float 0;
#X coords 0 1.02 7.01716e+06 -1.02 200 130 1;
#X restore 565 219 graph;
#N canvas 705 189 450 300 (subpatch) 0;
#X array sample13 7.42415e+06 float 0;
#X coords 0 1.02 7.42415e+06 -1.02 200 130 1;
#X restore 565 369 graph;
#N canvas 0 105 450 300 (subpatch) 0;
#X array sample14 7.22045e+06 float 0;
#X coords 0 1.02 7.22045e+06 -1.02 200 130 1;
#X restore 565 519 graph;
#N canvas 0 109 450 300 (subpatch) 0;
#X array sample15 7.509e+06 float 0;
#X coords 0 1.02 7.509e+06 -1.02 200 130 1;
#X restore 565 669 graph;
#N canvas 0 93 450 300 (subpatch) 0;
#X array sample16 7.24488e+06 float 0;
#X coords 0 1.02 7.24488e+06 -1.02 200 130 1;
#X restore 815 39 graph;
#N canvas 0 97 450 300 (subpatch) 0;
#X array sample17 6.75136e+06 float 0;
#X coords 0 1.02 6.75136e+06 -1.02 200 130 1;
#X restore 815 219 graph;
#N canvas 702 193 450 300 (subpatch) 0;
#X array sample18 7.1367e+06 float 0;
#X coords 0 1.02 7.1367e+06 -1.02 200 130 1;
#X restore 815 369 graph;
#N canvas 0 105 450 300 (subpatch) 0;
#X array sample19 6.07574e+06 float 0;
#X coords 0 1.02 6.07574e+06 -1.02 200 130 1;
#X restore 815 519 graph;
#N canvas 0 109 450 300 (subpatch) 0;
#X array sample20 7.2798e+06 float 0;
#X coords 0 1.02 7.2798e+06 -1.02 200 130 1;
#X restore 815 669 graph;
#N canvas 0 93 450 300 (subpatch) 0;
#X array sample21 6.89018e+06 float 0;
#X coords 0 1.02 6.89018e+06 -1.02 200 130 1;
#X restore 1065 39 graph;
#N canvas 0 97 450 300 (subpatch) 0;
#X array sample22 7.01716e+06 float 0;
#X coords 0 1.02 7.01716e+06 -1.02 200 130 1;
#X restore 1065 219 graph;
#N canvas 702 193 450 300 (subpatch) 0;
#X array sample23 7.42415e+06 float 0;
#X coords 0 1.02 7.42415e+06 -1.02 200 130 1;
#X restore 1065 369 graph;
#N canvas 702 193 450 300 (subpatch) 0;
#X array sample0 2.06131e+06 float 0;
#X coords 0 1.02 2.06131e+06 -1.02 200 130 1;
#X restore 1065 669 graph;
#N canvas 2336 624 1391 716 samples-path 0;
#X obj 80 53 soundfiler;
#X obj 231 53 s sample-size;
#X obj 156 53 / 44.1;
#X obj 204 53 f;
#X obj 204 15 bng 15 250 50 0 empty empty empty 17 7 0 10 -262144 -1
-1;
#X obj 162 14 sel 1;
#X obj 9 16 r loadbang;
#X obj 80 123 soundfiler;
#X obj 231 123 s sample-size;
#X obj 156 123 / 44.1;
#X obj 204 123 f;
#X obj 204 85 bng 15 250 50 0 empty empty empty 17 7 0 10 -262144 -1
-1;
#X obj 9 86 r loadbang;
#X obj 162 84 sel 2;
#X obj 80 193 soundfiler;
#X obj 231 193 s sample-size;
#X obj 156 193 / 44.1;
#X obj 204 193 f;
#X obj 204 155 bng 15 250 50 0 empty empty empty 17 7 0 10 -262144
-1 -1;
#X obj 9 156 r loadbang;
#X obj 80 263 soundfiler;
#X obj 231 263 s sample-size;
#X obj 156 263 / 44.1;
#X obj 204 263 f;
#X obj 204 225 bng 15 250 50 0 empty empty empty 17 7 0 10 -262144
-1 -1;
#X obj 9 226 r loadbang;
#X obj 162 154 sel 3;
#X obj 162 224 sel 4;
#X obj 80 333 soundfiler;
#X obj 231 333 s sample-size;
#X obj 156 333 / 44.1;
#X obj 204 333 f;
#X obj 204 295 bng 15 250 50 0 empty empty empty 17 7 0 10 -262144
-1 -1;
#X obj 9 296 r loadbang;
#X obj 162 294 sel 5;
#X obj 80 403 soundfiler;
#X obj 231 403 s sample-size;
#X obj 156 403 / 44.1;
#X obj 204 403 f;
#X obj 204 365 bng 15 250 50 0 empty empty empty 17 7 0 10 -262144
-1 -1;
#X obj 9 366 r loadbang;
#X obj 162 364 sel 6;
#X obj 80 473 soundfiler;
#X obj 231 473 s sample-size;
#X obj 156 473 / 44.1;
#X obj 204 473 f;
#X obj 204 435 bng 15 250 50 0 empty empty empty 17 7 0 10 -262144
-1 -1;
#X obj 9 436 r loadbang;
#X obj 162 434 sel 7;
#X obj 80 543 soundfiler;
#X obj 231 543 s sample-size;
#X obj 156 543 / 44.1;
#X obj 204 543 f;
#X obj 204 505 bng 15 250 50 0 empty empty empty 17 7 0 10 -262144
-1 -1;
#X obj 9 506 r loadbang;
#X obj 162 504 sel 8;
#X obj 80 613 soundfiler;
#X obj 231 613 s sample-size;
#X obj 156 613 / 44.1;
#X obj 204 613 f;
#X obj 204 575 bng 15 250 50 0 empty empty empty 17 7 0 10 -262144
-1 -1;
#X obj 9 576 r loadbang;
#X obj 162 574 sel 9;
#X obj 80 683 soundfiler;
#X obj 231 683 s sample-size;
#X obj 156 683 / 44.1;
#X obj 204 683 f;
#X obj 211 645 bng 15 250 50 0 empty empty empty 17 7 0 10 -262144
-1 -1;
#X obj 9 646 r loadbang;
#X obj 162 644 sel 10;
#X obj 580 53 soundfiler;
#X obj 731 53 s sample-size;
#X obj 656 53 / 44.1;
#X obj 704 53 f;
#X obj 711 15 bng 15 250 50 0 empty empty empty 17 7 0 10 -262144 -1
-1;
#X obj 509 16 r loadbang;
#X obj 580 123 soundfiler;
#X obj 731 123 s sample-size;
#X obj 656 123 / 44.1;
#X obj 704 123 f;
#X obj 714 85 bng 15 250 50 0 empty empty empty 17 7 0 10 -262144 -1
-1;
#X obj 509 86 r loadbang;
#X obj 580 193 soundfiler;
#X obj 731 193 s sample-size;
#X obj 656 193 / 44.1;
#X obj 704 193 f;
#X obj 714 155 bng 15 250 50 0 empty empty empty 17 7 0 10 -262144
-1 -1;
#X obj 509 156 r loadbang;
#X obj 580 263 soundfiler;
#X obj 731 263 s sample-size;
#X obj 656 263 / 44.1;
#X obj 704 263 f;
#X obj 714 225 bng 15 250 50 0 empty empty empty 17 7 0 10 -262144
-1 -1;
#X obj 509 226 r loadbang;
#X obj 580 333 soundfiler;
#X obj 731 333 s sample-size;
#X obj 656 333 / 44.1;
#X obj 704 333 f;
#X obj 714 295 bng 15 250 50 0 empty empty empty 17 7 0 10 -262144
-1 -1;
#X obj 509 296 r loadbang;
#X obj 580 403 soundfiler;
#X obj 731 403 s sample-size;
#X obj 656 403 / 44.1;
#X obj 704 403 f;
#X obj 714 365 bng 15 250 50 0 empty empty empty 17 7 0 10 -262144
-1 -1;
#X obj 509 366 r loadbang;
#X obj 580 473 soundfiler;
#X obj 731 473 s sample-size;
#X obj 656 473 / 44.1;
#X obj 704 473 f;
#X obj 714 435 bng 15 250 50 0 empty empty empty 17 7 0 10 -262144
-1 -1;
#X obj 509 436 r loadbang;
#X obj 580 543 soundfiler;
#X obj 731 543 s sample-size;
#X obj 656 543 / 44.1;
#X obj 704 543 f;
#X obj 714 505 bng 15 250 50 0 empty empty empty 17 7 0 10 -262144
-1 -1;
#X obj 509 506 r loadbang;
#X obj 580 613 soundfiler;
#X obj 731 613 s sample-size;
#X obj 656 613 / 44.1;
#X obj 704 613 f;
#X obj 714 575 bng 15 250 50 0 empty empty empty 17 7 0 10 -262144
-1 -1;
#X obj 509 576 r loadbang;
#X obj 580 683 soundfiler;
#X obj 731 683 s sample-size;
#X obj 656 683 / 44.1;
#X obj 704 683 f;
#X obj 721 645 bng 15 250 50 0 empty empty empty 17 7 0 10 -262144
-1 -1;
#X obj 509 646 r loadbang;
#X obj 662 14 sel 11;
#X obj 662 84 sel 12;
#X obj 662 154 sel 13;
#X obj 662 224 sel 14;
#X obj 662 294 sel 15;
#X obj 662 364 sel 16;
#X obj 662 434 sel 17;
#X obj 662 504 sel 18;
#X obj 662 574 sel 19;
#X obj 662 644 sel 20;
#X obj 1040 53 soundfiler;
#X obj 1191 53 s sample-size;
#X obj 1116 53 / 44.1;
#X obj 1164 53 f;
#X obj 1171 15 bng 15 250 50 0 empty empty empty 17 7 0 10 -262144
-1 -1;
#X obj 959 17 r loadbang;
#X obj 1040 123 soundfiler;
#X obj 1191 123 s sample-size;
#X obj 1116 123 / 44.1;
#X obj 1164 123 f;
#X obj 1174 85 bng 15 250 50 0 empty empty empty 17 7 0 10 -262144
-1 -1;
#X obj 959 87 r loadbang;
#X obj 1040 193 soundfiler;
#X obj 1191 193 s sample-size;
#X obj 1116 193 / 44.1;
#X obj 1164 193 f;
#X obj 1174 155 bng 15 250 50 0 empty empty empty 17 7 0 10 -262144
-1 -1;
#X obj 959 157 r loadbang;
#X obj 1122 14 sel 21;
#X obj 1122 84 sel 22;
#X obj 1123 154 sel 23;
#X obj 1040 523 soundfiler;
#X obj 1191 523 s sample-size;
#X obj 1116 523 / 44.1;
#X obj 1164 523 f;
#X obj 1174 485 bng 15 250 50 0 empty empty empty 17 7 0 10 -262144
-1 -1;
#X obj 959 487 r loadbang;
#X obj 1123 484 sel 0;
#X msg 85 34 read -resize -maxsize 7.94e+06 1.wav sample1;
#X msg 85 104 read -resize -maxsize 7.94e+06 2.wav sample2;
#X msg 85 174 read -resize -maxsize 7.94e+06 3.wav sample3;
#X msg 85 245 read -resize -maxsize 7.94e+06 4.wav sample4;
#X msg 85 314 read -resize -maxsize 7.94e+06 5.wav sample5;
#X msg 85 384 read -resize -maxsize 7.94e+06 6.wav sample6;
#X msg 84 453 read -resize -maxsize 7.94e+06 7.wav sample7;
#X msg 84 524 read -resize -maxsize 7.94e+06 8.wav sample8;
#X msg 84 594 read -resize -maxsize 7.94e+06 9.wav sample9;
#X msg 84 664 read -resize -maxsize 7.94e+06 10.wav sample10;
#X msg 585 34 read -resize -maxsize 7.94e+06 1.wav sample11;
#X msg 585 104 read -resize -maxsize 7.94e+06 2.wav sample12;
#X msg 585 174 read -resize -maxsize 7.94e+06 3.wav sample13;
#X msg 585 244 read -resize -maxsize 7.94e+06 4.wav sample14;
#X msg 585 314 read -resize -maxsize 7.94e+06 5.wav sample15;
#X msg 585 384 read -resize -maxsize 7.94e+06 6.wav sample16;
#X msg 584 454 read -resize -maxsize 7.94e+06 7.wav sample17;
#X msg 584 524 read -resize -maxsize 7.94e+06 8.wav sample18;
#X msg 584 594 read -resize -maxsize 7.94e+06 9.wav sample19;
#X msg 584 664 read -resize -maxsize 7.94e+06 10.wav sample20;
#X msg 1045 34 read -resize -maxsize 7.94e+06 1.wav sample21;
#X msg 1045 104 read -resize -maxsize 7.94e+06 2.wav sample22;
#X msg 1045 174 read -resize -maxsize 7.94e+06 3.wav sample23;
#X msg 1045 505 read -resize -maxsize 7.94e+06 4.wav sample20;
#X obj 79 9 r audio-pays;
#X obj 79 79 r audio-pays;
#X obj 79 149 r audio-pays;
#X obj 79 219 r audio-pays;
#X obj 79 289 r audio-pays;
#X obj 79 359 r audio-pays;
#X obj 79 429 r audio-pays;
#X obj 79 499 r audio-pays;
#X obj 79 569 r audio-pays;
#X obj 79 639 r audio-pays;
#X obj 579 7 r audio-pays;
#X obj 579 77 r audio-pays;
#X obj 579 147 r audio-pays;
#X obj 579 217 r audio-pays;
#X obj 579 287 r audio-pays;
#X obj 579 357 r audio-pays;
#X obj 579 427 r audio-pays;
#X obj 579 497 r audio-pays;
#X obj 579 567 r audio-pays;
#X obj 579 637 r audio-pays;
#X obj 1029 6 r audio-pays;
#X obj 1029 76 r audio-pays;
#X obj 1029 146 r audio-pays;
#X obj 1029 476 r audio-pays;
#X connect 0 0 2 0;
#X connect 2 0 3 0;
#X connect 3 0 1 0;
#X connect 4 0 3 0;
#X connect 5 0 4 0;
#X connect 6 0 168 0;
#X connect 7 0 9 0;
#X connect 9 0 10 0;
#X connect 10 0 8 0;
#X connect 11 0 10 0;
#X connect 12 0 169 0;
#X connect 13 0 11 0;
#X connect 14 0 16 0;
#X connect 16 0 17 0;
#X connect 17 0 15 0;
#X connect 18 0 17 0;
#X connect 19 0 170 0;
#X connect 20 0 22 0;
#X connect 22 0 23 0;
#X connect 23 0 21 0;
#X connect 24 0 23 0;
#X connect 25 0 171 0;
#X connect 26 0 18 0;
#X connect 27 0 24 0;
#X connect 28 0 30 0;
#X connect 30 0 31 0;
#X connect 31 0 29 0;
#X connect 32 0 31 0;
#X connect 33 0 172 0;
#X connect 34 0 32 0;
#X connect 35 0 37 0;
#X connect 37 0 38 0;
#X connect 38 0 36 0;
#X connect 39 0 38 0;
#X connect 40 0 173 0;
#X connect 41 0 39 0;
#X connect 42 0 44 0;
#X connect 44 0 45 0;
#X connect 45 0 43 0;
#X connect 46 0 45 0;
#X connect 47 0 174 0;
#X connect 48 0 46 0;
#X connect 49 0 51 0;
#X connect 51 0 52 0;
#X connect 52 0 50 0;
#X connect 53 0 52 0;
#X connect 54 0 175 0;
#X connect 55 0 53 0;
#X connect 56 0 58 0;
#X connect 58 0 59 0;
#X connect 59 0 57 0;
#X connect 60 0 59 0;
#X connect 61 0 176 0;
#X connect 62 0 60 0;
#X connect 63 0 65 0;
#X connect 65 0 66 0;
#X connect 66 0 64 0;
#X connect 67 0 66 0;
#X connect 68 0 177 0;
#X connect 69 0 67 0;
#X connect 70 0 72 0;
#X connect 72 0 73 0;
#X connect 73 0 71 0;
#X connect 74 0 73 0;
#X connect 75 0 178 0;
#X connect 76 0 78 0;
#X connect 78 0 79 0;
#X connect 79 0 77 0;
#X connect 80 0 79 0;
#X connect 81 0 179 0;
#X connect 82 0 84 0;
#X connect 84 0 85 0;
#X connect 85 0 83 0;
#X connect 86 0 85 0;
#X connect 87 0 180 0;
#X connect 88 0 90 0;
#X connect 90 0 91 0;
#X connect 91 0 89 0;
#X connect 92 0 91 0;
#X connect 93 0 181 0;
#X connect 94 0 96 0;
#X connect 96 0 97 0;
#X connect 97 0 95 0;
#X connect 98 0 97 0;
#X connect 99 0 182 0;
#X connect 100 0 102 0;
#X connect 102 0 103 0;
#X connect 103 0 101 0;
#X connect 104 0 103 0;
#X connect 105 0 183 0;
#X connect 106 0 108 0;
#X connect 108 0 109 0;
#X connect 109 0 107 0;
#X connect 110 0 109 0;
#X connect 111 0 184 0;
#X connect 112 0 114 0;
#X connect 114 0 115 0;
#X connect 115 0 113 0;
#X connect 116 0 115 0;
#X connect 117 0 185 0;
#X connect 118 0 120 0;
#X connect 120 0 121 0;
#X connect 121 0 119 0;
#X connect 122 0 121 0;
#X connect 123 0 186 0;
#X connect 124 0 126 0;
#X connect 126 0 127 0;
#X connect 127 0 125 0;
#X connect 128 0 127 0;
#X connect 129 0 187 0;
#X connect 130 0 74 0;
#X connect 131 0 80 0;
#X connect 132 0 86 0;
#X connect 133 0 92 0;
#X connect 134 0 98 0;
#X connect 135 0 104 0;
#X connect 136 0 110 0;
#X connect 137 0 116 0;
#X connect 138 0 122 0;
#X connect 139 0 128 0;
#X connect 140 0 142 0;
#X connect 142 0 143 0;
#X connect 143 0 141 0;
#X connect 144 0 143 0;
#X connect 145 0 188 0;
#X connect 146 0 148 0;
#X connect 148 0 149 0;
#X connect 149 0 147 0;
#X connect 150 0 149 0;
#X connect 151 0 189 0;
#X connect 152 0 154 0;
#X connect 154 0 155 0;
#X connect 155 0 153 0;
#X connect 156 0 155 0;
#X connect 157 0 190 0;
#X connect 158 0 144 0;
#X connect 159 0 150 0;
#X connect 160 0 156 0;
#X connect 161 0 163 0;
#X connect 163 0 164 0;
#X connect 164 0 162 0;
#X connect 165 0 164 0;
#X connect 166 0 191 0;
#X connect 167 0 165 0;
#X connect 168 0 0 0;
#X connect 169 0 7 0;
#X connect 170 0 14 0;
#X connect 171 0 20 0;
#X connect 172 0 28 0;
#X connect 173 0 35 0;
#X connect 174 0 42 0;
#X connect 175 0 49 0;
#X connect 176 0 56 0;
#X connect 177 0 63 0;
#X connect 178 0 70 0;
#X connect 179 0 76 0;
#X connect 180 0 82 0;
#X connect 181 0 88 0;
#X connect 182 0 94 0;
#X connect 183 0 100 0;
#X connect 184 0 106 0;
#X connect 185 0 112 0;
#X connect 186 0 118 0;
#X connect 187 0 124 0;
#X connect 188 0 140 0;
#X connect 189 0 146 0;
#X connect 190 0 152 0;
#X connect 191 0 161 0;
#X connect 192 0 5 0;
#X connect 193 0 13 0;
#X connect 194 0 26 0;
#X connect 195 0 27 0;
#X connect 196 0 34 0;
#X connect 197 0 41 0;
#X connect 198 0 48 0;
#X connect 199 0 55 0;
#X connect 200 0 62 0;
#X connect 201 0 69 0;
#X connect 202 0 130 0;
#X connect 203 0 131 0;
#X connect 204 0 132 0;
#X connect 205 0 133 0;
#X connect 206 0 134 0;
#X connect 207 0 135 0;
#X connect 208 0 136 0;
#X connect 209 0 137 0;
#X connect 210 0 138 0;
#X connect 211 0 139 0;
#X connect 212 0 158 0;
#X connect 213 0 159 0;
#X connect 214 0 160 0;
#X connect 215 0 167 0;
#X restore 1114 572 pd samples-path;
#X restore 143 88 pd samples;
#X obj 7 100 s loadbang;
#X obj 7 61 loadbang;
#X obj 7 81 bng 15 250 50 0 empty empty empty 17 7 0 10 -262144 -1
-1;
#X obj 159 291 dac~;
#N canvas 1132 506 788 574 delay 0;
#X obj 183 55 inlet~;
#X obj 241 190 outlet~;
#X obj 182 212 +~;
#X obj 198 151 *~;
#X obj 240 162 delread~ \$0bdl1;
#X text 34 12 delayline (delread/write) with feedback \, max 4 sec.
;
#X obj 181 292 delwrite~ \$0bdl1 4000;
#X obj 353 55 inlet~;
#X obj 411 190 outlet~;
#X obj 352 212 +~;
#X obj 368 151 *~;
#X obj 351 292 delwrite~ \$0bdl2 4000;
#X obj 410 162 delread~ \$0bdl2;
#X obj 502 46 / 127;
#X obj 422 46 * 31;
#X obj 445 -43 r audio-delay;
#X obj 460 -23 r audio-feedback;
#X obj 53 55 inlet~;
#X obj 103 55 inlet~;
#X obj 53 75 outlet~;
#X obj 103 75 outlet~;
#X connect 0 0 2 0;
#X connect 0 0 1 0;
#X connect 2 0 6 0;
#X connect 3 0 2 1;
#X connect 4 0 3 0;
#X connect 4 0 1 0;
#X connect 7 0 9 0;
#X connect 7 0 8 0;
#X connect 9 0 11 0;
#X connect 10 0 9 1;
#X connect 12 0 10 0;
#X connect 12 0 8 0;
#X connect 13 0 3 1;
#X connect 13 0 10 1;
#X connect 14 0 4 0;
#X connect 14 0 12 0;
#X connect 15 0 14 0;
#X connect 16 0 13 0;
#X connect 17 0 19 0;
#X connect 18 0 20 0;
#X restore 147 175 pd delay;
#X obj 151 117 sampler;
#X text 262 62 connexion et routeur OSC;
#X text 274 88 chargement des samples;
#N canvas 2533 335 450 300 reverb 0;
#X obj 305 -5 r audio-roomsize;
#X obj 305 80 r audio-damping;
#X obj 305 144 r audio-width;
#X obj 305 208 r audio-wet;
#X obj 305 272 r audio-dry;
#X obj 306 334 r audio-freez;
#X obj 308 395 r audio-bypass;
#X obj 305 14 / 127;
#X obj 305 162 / 127;
#X obj 305 226 / 127;
#X obj 305 289 / 127;
#X msg 305 58 roomsize \$1;
#X msg 305 119 damping \$1;
#X msg 305 183 width \$1;
#X msg 305 247 wet \$1;
#X msg 305 309 dry \$1;
#X msg 306 373 freeze \$1;
#X msg 308 436 bypass \$1;
#X obj 308 417 tgl 15 0 empty empty empty 0 -6 0 8 -262144 -1 -1 0
1;
#X obj 306 354 tgl 15 0 empty empty empty 0 -6 0 8 -262144 -1 -1 0
1;
#X obj 305 98 / 64;
#X obj 305 37 + 0.1;
#X obj 305 474 s reverb;
#X obj 206 222 r reverb;
#X obj 37 238 inlet~;
#X obj 107 238 inlet~;
#X obj 37 298 outlet~;
#X obj 107 298 outlet~;
#X text 33 109 Freeverb~ ne fonctionne avec raspberry;
#X text 33 119 equalizer à faire;
#X connect 0 0 7 0;
#X connect 1 0 20 0;
#X connect 2 0 8 0;
#X connect 3 0 9 0;
#X connect 4 0 10 0;
#X connect 5 0 19 0;
#X connect 6 0 18 0;
#X connect 7 0 21 0;
#X connect 8 0 13 0;
#X connect 9 0 14 0;
#X connect 10 0 15 0;
#X connect 11 0 22 0;
#X connect 12 0 22 0;
#X connect 13 0 22 0;
#X connect 14 0 22 0;
#X connect 15 0 22 0;
#X connect 16 0 22 0;
#X connect 17 0 22 0;
#X connect 18 0 17 0;
#X connect 19 0 16 0;
#X connect 20 0 12 0;
#X connect 21 0 11 0;
#X connect 24 0 26 0;
#X connect 25 0 27 0;
#X restore 145 232 pd reverb;
#N canvas 2533 335 450 300 eq 0;
#X obj 305 -5 r audio-roomsize;
#X obj 37 238 inlet~;
#X obj 107 238 inlet~;
#X obj 37 298 outlet~;
#X obj 107 298 outlet~;
#X connect 1 0 3 0;
#X connect 2 0 4 0;
#X restore 156 145 pd eq;
#N canvas 2106 224 648 300 fx 0;
#X obj 37 238 inlet~;
#X obj 107 238 inlet~;
#X obj 37 298 outlet~;
#X obj 107 298 outlet~;
#X connect 0 0 2 0;
#X connect 1 0 3 0;
#X restore 155 203 pd fx;
#N canvas 807 327 650 342 vol 1;
#X obj 178 170 / 127;
#X obj 178 101 r loadbang;
#X obj 150 239 *~;
#X obj 150 209 *~;
#X floatatom 178 192 5 0 0 0 - - -, f 5;
#X obj 57 200 / 127;
#X msg 57 155 100;
#X obj 57 179 r audio-main;
#X obj 57 131 r loadbang;
#X floatatom 57 222 5 0 0 0 - - -, f 5;
#X obj 149 78 inlet~;
#X obj 178 149 r audio-spk1;
#X obj 308 170 / 127;
#X obj 308 101 r loadbang;
#X obj 280 239 *~;
#X obj 280 209 *~;
#X floatatom 308 192 5 0 0 0 - - -, f 5;
#X msg 308 125 64;
#X obj 279 78 inlet~;
#X obj 309 149 r audio-spk2;
#X obj 428 170 / 127;
#X obj 428 101 r loadbang;
#X obj 400 239 *~;
#X obj 400 209 *~;
#X floatatom 428 192 5 0 0 0 - - -, f 5;
#X msg 428 125 64;
#X obj 558 170 / 127;
#X obj 558 101 r loadbang;
#X obj 530 239 *~;
#X obj 530 209 *~;
#X floatatom 558 192 5 0 0 0 - - -, f 5;
#X msg 558 125 64;
#X obj 428 149 r audio-spk3;
#X obj 559 149 r audio-spk4;
#X obj 149 268 outlet~;
#X obj 279 268 outlet~;
#X msg 178 125 100;
#X connect 0 0 4 0;
#X connect 1 0 36 0;
#X connect 2 0 34 0;
#X connect 3 0 2 0;
#X connect 4 0 3 1;
#X connect 5 0 9 0;
#X connect 6 0 5 0;
#X connect 7 0 5 0;
#X connect 8 0 6 0;
#X connect 9 0 2 1;
#X connect 9 0 22 0;
#X connect 9 0 28 1;
#X connect 9 0 14 1;
#X connect 10 0 3 0;
#X connect 11 0 0 0;
#X connect 12 0 16 0;
#X connect 13 0 17 0;
#X connect 14 0 35 0;
#X connect 15 0 14 0;
#X connect 16 0 15 1;
#X connect 17 0 12 0;
#X connect 18 0 15 0;
#X connect 19 0 12 0;
#X connect 20 0 24 0;
#X connect 21 0 25 0;
#X connect 23 0 22 0;
#X connect 24 0 23 1;
#X connect 25 0 20 0;
#X connect 26 0 30 0;
#X connect 27 0 31 0;
#X connect 29 0 28 0;
#X connect 30 0 29 1;
#X connect 31 0 26 0;
#X connect 32 0 20 0;
#X connect 33 0 26 0;
#X connect 36 0 0 0;
#X restore 154 262 pd vol;
#X text 262 143 TODO=> equaliseur stereo;
#X text 250 116 sampler mono TODO=> stereo;
#X text 334 173 delay stereo;
#X text 244 203 TODO=> autres effets stereo;
#X text 287 233 TODO=> reverb stereo;
#N canvas 2020 62 1482 315 OSC-ROUTER-audio 0;
#X floatatom 15 116 5 0 0 0 - - -, f 5;
#X floatatom 54 116 5 0 0 0 - - -, f 5;
#X floatatom 93 116 5 0 0 0 - - -, f 5;
#X floatatom 133 116 5 0 0 0 - - -, f 5;
#X floatatom 314 117 5 0 0 0 - - -, f 5;
#X floatatom 353 117 5 0 0 0 - - -, f 5;
#X floatatom 392 117 5 0 0 0 - - -, f 5;
#X floatatom 430 117 5 0 0 0 - - -, f 5;
#X floatatom 469 117 5 0 0 0 - - -, f 5;
#X obj 314 44 route audio;
#X obj 93 221 s audio-hold;
#X obj 133 241 s audio-fadeout;
#X obj 54 201 s audio-fadein;
#X obj 15 181 s audio-level;
#X obj 314 64 route vol;
#X obj 353 159 s audio-spk1;
#X obj 314 139 s audio-main;
#X obj 392 179 s audio-spk2;
#X obj 430 199 s audio-spk3;
#X obj 469 219 s audio-spk4;
#X floatatom 509 116 5 0 0 0 - - -, f 5;
#X floatatom 548 116 5 0 0 0 - - -, f 5;
#X floatatom 587 116 5 0 0 0 - - -, f 5;
#X obj 509 44 route audio;
#X floatatom 635 116 5 0 0 0 - - -, f 5;
#X floatatom 674 116 5 0 0 0 - - -, f 5;
#X floatatom 713 116 5 0 0 0 - - -, f 5;
#X floatatom 751 116 5 0 0 0 - - -, f 5;
#X obj 635 44 route audio;
#X floatatom 919 117 5 0 0 0 - - -, f 5;
#X floatatom 958 117 5 0 0 0 - - -, f 5;
#X obj 919 45 route audio;
#X obj 509 64 route eq;
#X obj 548 158 s audio-mid;
#X obj 587 178 s audio-high;
#X obj 635 64 route reverb;
#X obj 919 65 route delay;
#X obj 919 139 s audio-delay;
#X obj 958 159 s audio-feedback;
#X floatatom 1086 117 5 0 0 0 - - -, f 5;
#X floatatom 1125 117 5 0 0 0 - - -, f 5;
#X floatatom 1164 117 5 0 0 0 - - -, f 5;
#X floatatom 1202 117 5 0 0 0 - - -, f 5;
#X floatatom 1241 117 5 0 0 0 - - -, f 5;
#X obj 1086 45 route audio;
#X obj 1086 65 route fx;
#X floatatom 1282 117 5 0 0 0 - - -, f 5;
#X floatatom 1321 117 5 0 0 0 - - -, f 5;
#X floatatom 1361 117 5 0 0 0 - - -, f 5;
#X obj 509 138 s audio-bass;
#X obj 1086 139 s audio-fx1;
#X obj 1125 159 s audio-fx2;
#X obj 1164 179 s audio-fx3;
#X obj 1202 199 s audio-fx4;
#X obj 1241 219 s audio-fx5;
#X obj 314 84 unpack f f f f f;
#X obj 919 84 unpack f f;
#X obj 1086 84 unpack f f f f f f f f;
#X obj 1282 239 s audio-fx6;
#X obj 1321 259 s audio-fx7;
#X obj 1361 279 s audio-fx8;
#X obj 18 69 route shape;
#X floatatom 788 116 5 0 0 0 - - -, f 5;
#X floatatom 827 116 5 0 0 0 - - -, f 5;
#X floatatom 865 116 5 0 0 0 - - -, f 5;
#X obj 635 83 unpack f f f f f f f;
#X obj 635 138 s audio-roomsize;
#X obj 674 158 s audio-damping;
#X obj 713 178 s audio-width;
#X obj 751 198 s audio-wet;
#X obj 788 218 s audio-dry;
#X obj 827 238 s audio-freez;
#X obj 865 258 s audio-bypass;
#X obj 509 83 unpack f f f;
#X obj 18 88 unpack f f f f;
#X floatatom 188 116 5 0 0 0 - - -, f 5;
#X floatatom 227 116 5 0 0 0 - - -, f 5;
#X obj 188 87 unpack f f f f f;
#X obj 188 67 route id;
#X obj 188 142 s audio-id;
#X obj 227 162 s audio-pays;
#X obj 188 47 route audio;
#X obj 188 27 r audio;
#X obj 18 48 route audio;
#X obj 18 27 r audio;
#X obj 314 25 r audio;
#X obj 509 24 r audio;
#X obj 635 25 r audio;
#X obj 919 26 r audio;
#X obj 1086 22 r audio;
#X obj -132 163 oscparse;
#X obj -132 187 list trim;
#X obj -132 104 bng 15 250 50 0 empty net-connect connecting 22 7 0
10 -262144 -260097 -260097;
#X obj -132 142 netreceive -u -b 8002;
#X msg -132 121 listen 8002;
#X obj -132 79 metro 5000;
#X obj -132 55 tgl 15 0 empty empty empty 17 7 0 10 -262144 -1 -1 1
1;
#X obj -133 30 loadbang;
#X obj -132 209 s audio;
#X obj -132 229 print audio-receive;
#X connect 0 0 13 0;
#X connect 1 0 12 0;
#X connect 2 0 10 0;
#X connect 3 0 11 0;
#X connect 4 0 16 0;
#X connect 5 0 15 0;
#X connect 6 0 17 0;
#X connect 7 0 18 0;
#X connect 8 0 19 0;
#X connect 9 0 14 0;
#X connect 14 0 55 0;
#X connect 20 0 49 0;
#X connect 21 0 33 0;
#X connect 22 0 34 0;
#X connect 23 0 32 0;
#X connect 24 0 66 0;
#X connect 25 0 67 0;
#X connect 26 0 68 0;
#X connect 27 0 69 0;
#X connect 28 0 35 0;
#X connect 29 0 37 0;
#X connect 30 0 38 0;
#X connect 31 0 36 0;
#X connect 32 0 73 0;
#X connect 35 0 65 0;
#X connect 36 0 56 0;
#X connect 39 0 50 0;
#X connect 40 0 51 0;
#X connect 41 0 52 0;
#X connect 42 0 53 0;
#X connect 43 0 54 0;
#X connect 44 0 45 0;
#X connect 45 0 57 0;
#X connect 46 0 58 0;
#X connect 47 0 59 0;
#X connect 48 0 60 0;
#X connect 55 0 4 0;
#X connect 55 1 5 0;
#X connect 55 2 6 0;
#X connect 55 3 7 0;
#X connect 55 4 8 0;
#X connect 56 0 29 0;
#X connect 56 1 30 0;
#X connect 57 0 39 0;
#X connect 57 1 40 0;
#X connect 57 2 41 0;
#X connect 57 3 42 0;
#X connect 57 4 43 0;
#X connect 57 5 46 0;
#X connect 57 6 47 0;
#X connect 57 7 48 0;
#X connect 61 0 74 0;
#X connect 62 0 70 0;
#X connect 63 0 71 0;
#X connect 64 0 72 0;
#X connect 65 0 24 0;
#X connect 65 1 25 0;
#X connect 65 2 26 0;
#X connect 65 3 27 0;
#X connect 65 4 62 0;
#X connect 65 5 63 0;
#X connect 65 6 64 0;
#X connect 73 0 20 0;
#X connect 73 1 21 0;
#X connect 73 2 22 0;
#X connect 74 0 0 0;
#X connect 74 1 1 0;
#X connect 74 2 2 0;
#X connect 74 3 3 0;
#X connect 75 0 79 0;
#X connect 76 0 80 0;
#X connect 77 0 75 0;
#X connect 77 1 76 0;
#X connect 78 0 77 0;
#X connect 81 0 78 0;
#X connect 82 0 81 0;
#X connect 83 0 61 0;
#X connect 84 0 83 0;
#X connect 85 0 9 0;
#X connect 86 0 23 0;
#X connect 87 0 28 0;
#X connect 88 0 31 0;
#X connect 89 0 44 0;
#X connect 90 0 91 0;
#X connect 91 0 98 0;
#X connect 91 0 99 0;
#X connect 92 0 94 0;
#X connect 93 0 90 0;
#X connect 94 0 93 0;
#X connect 95 0 92 0;
#X connect 96 0 95 0;
#X connect 97 0 96 0;
#X restore 120 61 pd OSC-ROUTER-audio;
#X text 316 263 volume 4 canaux;
#X text 333 291 sortie audio;
#X msg 9 278 \; pd dsp 1;
#X obj 9 250 r loadbang;
#X text 127 22 BACKUP AUDIO-SLAVE;
#X connect 2 0 3 0;
#X connect 3 0 1 0;
#X connect 5 0 11 0;
#X connect 5 1 11 1;
#X connect 6 0 10 0;
#X connect 6 1 10 1;
#X connect 9 0 12 0;
#X connect 9 1 12 1;
#X connect 10 0 5 0;
#X connect 10 1 5 1;
#X connect 11 0 9 0;
#X connect 11 1 9 1;
#X connect 12 0 4 0;
#X connect 12 1 4 1;
#X connect 22 0 21 0;
