#N canvas 339 137 1133 634 10;
#X text 14 31 Envoi de messages OSC pour test;
#X obj 200 194 bng 30 250 50 0 empty empty empty 17 7 0 10 -257985
-1 -1;
#X floatatom 299 184 5 0 0 0 - - -, f 5;
#X obj 281 305 f;
#X floatatom 359 184 5 0 0 0 - - -, f 5;
#X obj 341 305 f;
#X floatatom 419 184 5 0 0 0 - - -, f 5;
#X obj 401 305 f;
#X floatatom 479 184 5 0 0 0 - - -, f 5;
#X obj 461 305 f;
#X floatatom 239 184 5 0 0 0 - - -, f 5;
#X obj 221 305 f;
#X msg 430 375 \$1 \$2 \$3 \$4 \$5 \$6;
#X msg 106 547 disconnect;
#X obj 239 594 netsend -u -b;
#X obj 239 450 list prepend send;
#X obj 239 472 list trim;
#X obj 27 88 bng 30 250 50 0 empty empty empty 17 7 0 10 -257985 -1
-1;
#X msg 27 124 connect localhost 8003;
#X obj 602 423 list prepend send;
#X obj 602 444 list trim;
#X obj 271 14 tgl 15 0 empty empty empty 17 7 0 10 -257985 -1 -1 1
1;
#X obj 271 128 % 1000;
#X obj 271 153 + 1;
#X obj 271 72 t b b;
#X obj 271 97 f;
#X obj 315 96 + 1;
#X text 14 17 Exsitu / backup / 4 nov 2019;
#X obj 239 428 oscformat video shape;
#X obj 602 403 oscformat video param;
#X obj 601 237 bng 30 250 50 0 empty empty empty 17 7 0 10 -257985
-1 -1;
#X floatatom 641 224 5 0 0 0 - - -, f 5;
#X obj 623 325 f;
#X floatatom 694 224 5 0 0 0 - - -, f 5;
#X obj 676 325 f;
#X obj 623 352 pack f f;
#X obj 601 292 t b b;
#X obj 200 252 t b b b b b;
#X obj 239 382 pack f f f f f;
#X msg 363 127 1;
#X msg 454 127 2000;
#X msg 501 127 2000;
#X obj 392 56 loadbang;
#X obj 473 66 bng 15 250 50 0 empty empty empty 17 7 0 10 -262144 -1
-1;
#X msg 412 127 800;
#X obj 270 47 metro 1000;
#X obj 340 14 hsl 128 15 200 10000 0 0 empty empty empty -2 -8 0 10
-262144 -1 -1 1100 1;
#X floatatom 355 38 5 0 0 0 - - -, f 5;
#X connect 1 0 37 0;
#X connect 2 0 3 1;
#X connect 3 0 38 1;
#X connect 4 0 5 1;
#X connect 5 0 38 2;
#X connect 6 0 7 1;
#X connect 7 0 38 3;
#X connect 8 0 9 1;
#X connect 9 0 38 4;
#X connect 10 0 11 1;
#X connect 11 0 38 0;
#X connect 13 0 14 0;
#X connect 15 0 16 0;
#X connect 16 0 14 0;
#X connect 17 0 18 0;
#X connect 18 0 14 0;
#X connect 19 0 20 0;
#X connect 20 0 14 0;
#X connect 21 0 45 0;
#X connect 22 0 23 0;
#X connect 23 0 10 0;
#X connect 24 0 25 0;
#X connect 24 1 1 0;
#X connect 25 0 26 0;
#X connect 25 0 22 0;
#X connect 26 0 25 1;
#X connect 28 0 15 0;
#X connect 29 0 19 0;
#X connect 30 0 36 0;
#X connect 31 0 32 1;
#X connect 32 0 35 0;
#X connect 33 0 34 1;
#X connect 34 0 35 1;
#X connect 35 0 29 0;
#X connect 36 0 32 0;
#X connect 36 1 34 0;
#X connect 37 0 11 0;
#X connect 37 1 3 0;
#X connect 37 2 5 0;
#X connect 37 3 7 0;
#X connect 37 4 9 0;
#X connect 38 0 28 0;
#X connect 39 0 2 0;
#X connect 40 0 6 0;
#X connect 41 0 8 0;
#X connect 42 0 39 0;
#X connect 42 0 44 0;
#X connect 42 0 40 0;
#X connect 42 0 41 0;
#X connect 43 0 39 0;
#X connect 43 0 44 0;
#X connect 43 0 40 0;
#X connect 43 0 41 0;
#X connect 44 0 4 0;
#X connect 45 0 24 0;
#X connect 46 0 45 1;
#X connect 46 0 47 0;
