#N canvas 1387 279 424 364 10;
#N canvas 1093 89 538 987 sequences 0;
#X text 305 27 1.chronological;
#X text 305 43 2.altitude;
#X text 305 57 3.km-day;
#X text 304 99 6.color;
#X text 304 113 7.origin;
#X text 304 126 8.material;
#X text 306 3 SEQUENCES;
#X obj 85 209 bng 15 250 50 0 empty empty empty 17 7 0 10 -262144 -1
-1;
#X obj 85 715 textfile;
#X msg 85 239 rewind;
#X floatatom 85 816 5 0 0 0 - - -, f 5;
#X obj 85 762 unpack f f;
#X floatatom 142 790 5 0 0 0 - - -, f 5;
#X obj 129 737 bng 15 250 50 0 empty empty empty 17 7 0 10 -262144
-1 -1;
#X obj 85 186 metro;
#X msg 257 313 read geocyclab-datas-id.txt cr;
#X msg 259 396 read geocyclab-datas-km.txt cr;
#X msg 258 354 read geocyclab-datas-alt.txt cr;
#X msg 258 437 read geocyclab-datas-size.txt cr;
#X msg 258 477 read geocyclab-datas-weight.txt cr;
#X msg 258 517 read geocyclab-datas-color.txt cr;
#X msg 258 557 read geocyclab-datas-material.txt cr;
#X msg 258 597 read geocyclab-datas-origin.txt cr;
#X obj 185 145 loadbang;
#X msg 185 168 3000;
#X floatatom 85 156 5 0 0 0 - - -, f 5;
#X floatatom 125 156 5 0 0 0 - - -, f 5;
#X obj 85 120 unpack f f f f;
#X text 85 51 RECEIVE FROM CONTROLER;
#X obj 87 95 route cadence;
#X obj 257 195 route sequence;
#X floatatom 257 246 5 0 0 0 - - -, f 5;
#X obj 257 274 sel 0 1 2 3 4 5 6 7;
#X obj 257 221 t b f;
#X text 257 153 RECEIVE FROM CONTROLER;
#X obj 346 734 loadbang;
#X msg 316 734 5;
#X obj 258 775 mod 8;
#X floatatom 258 798 5 0 0 0 - - -, f 5;
#X obj 258 752 f;
#X obj 282 752 + 1;
#X text 305 85 4.poid;
#X text 305 72 5.taille;
#X obj 87 70 r \$0-route;
#X obj 257 170 r \$0-route;
#X obj 85 859 s \$0-id;
#X obj 142 812 s \$0-pays;
#X obj 181 102 r \$0-defaut-cadence;
#X obj 257 296 bng 15 250 50 0 empty empty empty 17 7 0 10 -262144
-1 -1;
#X obj 257 334 bng 15 250 50 0 empty empty empty 17 7 0 10 -262144
-1 -1;
#X obj 259 379 bng 15 250 50 0 empty empty empty 17 7 0 10 -262144
-1 -1;
#X obj 259 417 bng 15 250 50 0 empty empty empty 17 7 0 10 -262144
-1 -1;
#X obj 259 458 bng 15 250 50 0 empty empty empty 17 7 0 10 -262144
-1 -1;
#X obj 259 496 bng 15 250 50 0 empty empty empty 17 7 0 10 -262144
-1 -1;
#X obj 261 541 bng 15 250 50 0 empty empty empty 17 7 0 10 -262144
-1 -1;
#X obj 261 579 bng 15 250 50 0 empty empty empty 17 7 0 10 -262144
-1 -1;
#X connect 7 0 8 0;
#X connect 8 0 11 0;
#X connect 8 1 13 0;
#X connect 9 0 8 0;
#X connect 10 0 45 0;
#X connect 11 0 10 0;
#X connect 11 1 12 0;
#X connect 12 0 46 0;
#X connect 13 0 39 0;
#X connect 14 0 7 0;
#X connect 15 0 8 0;
#X connect 16 0 8 0;
#X connect 17 0 8 0;
#X connect 18 0 8 0;
#X connect 19 0 8 0;
#X connect 20 0 8 0;
#X connect 21 0 8 0;
#X connect 22 0 8 0;
#X connect 23 0 14 0;
#X connect 23 0 24 0;
#X connect 24 0 14 1;
#X connect 25 0 14 0;
#X connect 26 0 14 1;
#X connect 27 0 25 0;
#X connect 27 1 26 0;
#X connect 29 0 27 0;
#X connect 30 0 33 0;
#X connect 31 0 32 0;
#X connect 32 0 48 0;
#X connect 32 1 49 0;
#X connect 32 2 50 0;
#X connect 32 3 51 0;
#X connect 32 4 52 0;
#X connect 32 5 53 0;
#X connect 32 6 54 0;
#X connect 32 7 55 0;
#X connect 33 0 9 0;
#X connect 33 1 31 0;
#X connect 35 0 36 0;
#X connect 36 0 39 0;
#X connect 37 0 38 0;
#X connect 38 0 33 0;
#X connect 39 0 40 0;
#X connect 39 0 37 0;
#X connect 40 0 39 1;
#X connect 43 0 29 0;
#X connect 44 0 30 0;
#X connect 47 0 27 0;
#X connect 48 0 15 0;
#X connect 49 0 17 0;
#X connect 50 0 16 0;
#X connect 51 0 18 0;
#X connect 52 0 19 0;
#X connect 53 0 20 0;
#X connect 54 0 21 0;
#X connect 55 0 22 0;
#X restore 75 124 pd sequences;
#N canvas 407 140 661 727 light-master 1;
#X obj 75 167 tgl 15 0 empty empty connected 20 7 0 10 -1 -260097 -260097
0 1;
#X obj 85 82 bng 15 250 50 0 empty empty disconnecting 22 7 0 10 -262144
-260097 -260097;
#X msg 85 122 disconnect;
#X obj 75 144 netsend -u -b;
#X msg 75 102 connect localhost 8001;
#X floatatom 268 345 5 0 0 0 - - -, f 5;
#X floatatom 307 344 5 0 0 0 - - -, f 5;
#X floatatom 345 344 5 0 0 0 - - -, f 5;
#X floatatom 384 344 5 0 0 0 - - -, f 5;
#X obj 91 285 route shape;
#X obj 350 265 route light;
#X obj 350 285 route colors;
#X obj 350 311 unpack f f f f f f f f;
#X floatatom 89 332 5 0 0 0 - - -, f 5;
#X floatatom 129 332 5 0 0 0 - - -, f 5;
#X floatatom 168 332 5 0 0 0 - - -, f 5;
#X floatatom 206 332 5 0 0 0 - - -, f 5;
#X obj 89 310 unpack f f f f;
#X obj 163 143 r light-pack;
#X floatatom 24 353 5 0 0 0 - - -, f 5;
#X obj 442 558 list prepend send;
#X obj 442 580 list trim;
#X obj 442 601 s light-pack;
#X obj 141 582 l2s;
#X obj 141 658 comport 0 57600;
#X msg 141 606 print \$1 \, 10;
#X obj 234 581 print on;
#X msg 141 547 LED \$1 \$2 \$3 \$4 \$5;
#X obj 442 536 oscformat light shape;
#X msg 263 547 BACK \$1 \$2 \$3 \$4;
#X obj 324 405 pack f f f f;
#X text 440 499 SEND OSC TO TEENSY;
#X text 140 523 SEND SERIAL (comport) TO TEENSY;
#X obj 57 407 pack f f f f f;
#X obj 484 405 pack f f f f;
#X obj 544 369 t b f;
#X obj 505 369 t b f;
#X obj 428 369 t b f;
#X msg 428 387 bang;
#X obj 467 369 t b f;
#X floatatom 428 345 5 0 0 0 - - -, f 5;
#X floatatom 467 344 5 0 0 0 - - -, f 5;
#X floatatom 505 344 5 0 0 0 - - -, f 5;
#X floatatom 544 344 5 0 0 0 - - -, f 5;
#X text 328 478 BACKGROUND COLOR;
#X text 491 453 HEAD COLOR;
#X text 330 226 RECEIVE FROM CONTROLER;
#X text 90 469 HEAD SHAPE;
#X text 89 241 RECEIVE FROM CONTROLER;
#X obj 245 82 bng 15 250 50 0 empty net-connect connecting 22 7 0 10
-262144 -260097 -260097;
#X obj 245 20 loadbang;
#X msg 245 102 connect backup-light-slave 8001;
#X obj 58 450 print light-id(master);
#X obj 288 460 print light-background(master);
#X obj 24 383 - 1;
#X obj 245 45 delay 100;
#X obj 58 429 spigot;
#X obj 151 411 r print;
#X obj 324 429 spigot;
#X obj 404 411 r print;
#X msg 73 580 close;
#X msg 73 601 open 0;
#X obj 233 609 inlet;
#X obj 141 633 spigot;
#X obj 91 260 r \$0-route;
#X obj 350 244 r \$0-route;
#X obj 24 330 r \$0-id;
#X obj 179 257 r \$0-defaut-shape;
#X obj 435 244 r \$0-defaut-background;
#X obj 484 429 s \$0-head_param;
#X obj 442 515 r \$0-shape_param;
#X connect 1 0 2 0;
#X connect 2 0 3 0;
#X connect 3 0 0 0;
#X connect 4 0 3 0;
#X connect 5 0 30 0;
#X connect 6 0 30 1;
#X connect 7 0 30 2;
#X connect 8 0 30 3;
#X connect 9 0 17 0;
#X connect 10 0 11 0;
#X connect 11 0 12 0;
#X connect 12 0 5 0;
#X connect 12 1 6 0;
#X connect 12 2 7 0;
#X connect 12 3 8 0;
#X connect 12 4 40 0;
#X connect 12 5 41 0;
#X connect 12 6 42 0;
#X connect 12 7 43 0;
#X connect 13 0 33 1;
#X connect 14 0 33 2;
#X connect 15 0 33 3;
#X connect 16 0 33 4;
#X connect 17 0 13 0;
#X connect 17 1 14 0;
#X connect 17 2 15 0;
#X connect 17 3 16 0;
#X connect 18 0 3 0;
#X connect 19 0 54 0;
#X connect 20 0 21 0;
#X connect 21 0 22 0;
#X connect 23 0 25 0;
#X connect 25 0 63 0;
#X connect 27 0 23 0;
#X connect 28 0 20 0;
#X connect 29 0 23 0;
#X connect 30 0 29 0;
#X connect 30 0 58 0;
#X connect 33 0 56 0;
#X connect 33 0 27 0;
#X connect 34 0 69 0;
#X connect 35 0 38 0;
#X connect 35 1 34 3;
#X connect 36 0 38 0;
#X connect 36 1 34 2;
#X connect 37 0 38 0;
#X connect 37 1 34 0;
#X connect 38 0 34 0;
#X connect 39 0 38 0;
#X connect 39 1 34 1;
#X connect 40 0 37 0;
#X connect 41 0 39 0;
#X connect 42 0 36 0;
#X connect 43 0 35 0;
#X connect 49 0 51 0;
#X connect 50 0 55 0;
#X connect 51 0 3 0;
#X connect 54 0 33 0;
#X connect 55 0 49 0;
#X connect 56 0 52 0;
#X connect 57 0 56 1;
#X connect 58 0 53 0;
#X connect 59 0 58 1;
#X connect 60 0 24 0;
#X connect 61 0 24 0;
#X connect 62 0 63 1;
#X connect 63 0 24 0;
#X connect 64 0 9 0;
#X connect 65 0 10 0;
#X connect 66 0 19 0;
#X connect 67 0 17 0;
#X connect 68 0 12 0;
#X connect 70 0 28 0;
#X restore 65 185 pd light-master;
#N canvas 1949 254 1837 280 audio-master 0;
#X obj 47 405 route shape;
#X floatatom 107 225 5 0 0 0 - - -, f 5;
#X obj 42 49 bng 15 250 50 0 empty net-connect connecting 22 7 0 10
-262144 -260097 -260097;
#X obj 42 144 tgl 15 0 empty empty connected 20 7 0 10 -1 -260097 -260097
1 1;
#X obj 52 16 bng 15 250 50 0 empty empty disconnecting 22 7 0 10 -262144
-260097 -260097;
#X msg 52 99 disconnect;
#X msg 582 69 connect localhost 8002;
#X obj 42 121 netsend -u -b;
#X msg 42 69 connect backup-audio-slave 8002;
#X obj 47 473 list prepend send;
#X obj 173 473 list trim;
#X floatatom 172 225 5 0 0 0 - - -, f 5;
#X obj 348 473 list prepend send;
#X obj 474 473 list trim;
#X obj 348 405 route vol;
#X obj 348 453 oscformat audio vol;
#X text 45 361 RECEIVE FROM CONTROLER / SHAPE;
#X text 347 361 RECEIVE FROM CONTROLER / VOL;
#X obj 474 453 print audio-vol(master);
#X obj 183 453 print audio-shape(master);
#X obj 633 473 list prepend send;
#X obj 759 473 list trim;
#X text 632 361 RECEIVE FROM CONTROLER / EQ;
#X obj 633 405 route eq;
#X obj 633 453 oscformat audio eq;
#X obj 759 453 print audio-eq(master);
#X obj 1538 473 list prepend send;
#X obj 1664 473 list trim;
#X text 1537 361 RECEIVE FROM CONTROLER / FX;
#X obj 1538 405 route fx;
#X obj 1538 453 oscformat audio fx;
#X obj 1664 453 print audio-fx(master);
#X obj 913 473 list prepend send;
#X obj 1059 473 list trim;
#X text 912 361 RECEIVE FROM CONTROLER / REVERB;
#X obj 913 405 route reverb;
#X obj 913 453 oscformat audio reverb;
#X obj 1059 453 print audio-reverb(master);
#X obj 1223 473 list prepend send;
#X obj 1369 473 list trim;
#X text 1222 361 RECEIVE FROM CONTROLER / DELAY;
#X obj 1223 405 route delay;
#X obj 1223 453 oscformat audio delay;
#X obj 1369 453 print audio-delay(master);
#X obj 48 318 list prepend send;
#X obj 159 318 list trim;
#X obj 117 267 pack f f;
#X obj 174 294 print audio-id(master);
#X obj 47 453 oscformat audio shape;
#X obj 48 293 oscformat audio id;
#X obj 242 49 bng 15 250 50 0 empty net-connect connecting 22 7 0 10
-262144 -260097 -260097;
#X obj 35 -125 route brassage;
#X floatatom 35 -71 5 0 0 0 - - -, f 5;
#X obj 42 -2 t b b;
#X obj 82 -2 t b b;
#X obj 412 49 bng 15 250 50 0 empty net-connect connecting 22 7 0 10
-262144 -260097 -260097;
#X msg 412 69 connect 10.3.141.255 8002;
#X msg 242 69 connect 10.3.141.105 8002;
#X msg 156 -117 0;
#X obj 156 -170 loadbang;
#X obj 110 429 spigot;
#X obj 143 405 r print;
#X obj 399 429 spigot;
#X obj 432 405 r print;
#X obj 678 429 spigot;
#X obj 711 405 r print;
#X obj 982 429 spigot;
#X obj 1015 405 r print;
#X obj 1286 429 spigot;
#X obj 1319 405 r print;
#X obj 1583 429 spigot;
#X obj 1616 405 r print;
#X obj 174 269 spigot;
#X obj 207 245 r print;
#X obj 35 -150 r \$0-route;
#X obj 47 380 r \$0-route;
#X obj 348 380 r \$0-route;
#X obj 633 380 r \$0-route;
#X obj 913 380 r \$0-route;
#X obj 1223 380 r \$0-route;
#X obj 1538 380 r \$0-route;
#X obj 135 380 r \$0-defaut-shape;
#X obj 436 380 r \$0-defaut-vol;
#X obj 721 380 r \$0-defaut-eq;
#X obj 1001 380 r \$0-defaut-reverb;
#X obj 1312 380 r \$0-defaut-delay;
#X obj 1626 380 r \$0-defaut-fx;
#X obj 172 202 r \$0-pays;
#X obj 107 202 r \$0-id;
#X obj 128 121 r \$0-audio-pack;
#X obj 243 473 s \$0-audio-pack;
#X obj 534 473 s \$0-audio-pack;
#X obj 819 473 s \$0-audio-pack;
#X obj 1129 473 s \$0-audio-pack;
#X obj 1439 473 s \$0-audio-pack;
#X obj 1734 473 s \$0-audio-pack;
#X obj 222 318 s \$0-audio-pack;
#X obj 35 -98 unpack f f f f;
#X obj 582 49 bng 15 250 50 0 empty net-connect connecting 22 7 0 10
-262144 -260097 -260097;
#X obj 122 -2 t b b;
#X obj 162 -2 t b b;
#X obj 36 -48 sel 0 1 2 3;
#X connect 0 0 48 0;
#X connect 0 0 60 0;
#X connect 1 0 46 0;
#X connect 2 0 8 0;
#X connect 4 0 5 0;
#X connect 5 0 7 0;
#X connect 6 0 7 0;
#X connect 7 0 3 0;
#X connect 8 0 7 0;
#X connect 9 0 10 0;
#X connect 10 0 90 0;
#X connect 11 0 46 1;
#X connect 12 0 13 0;
#X connect 13 0 91 0;
#X connect 14 0 15 0;
#X connect 14 0 62 0;
#X connect 15 0 12 0;
#X connect 20 0 21 0;
#X connect 21 0 92 0;
#X connect 23 0 24 0;
#X connect 23 0 64 0;
#X connect 24 0 20 0;
#X connect 26 0 27 0;
#X connect 27 0 95 0;
#X connect 29 0 30 0;
#X connect 29 0 70 0;
#X connect 30 0 26 0;
#X connect 32 0 33 0;
#X connect 33 0 93 0;
#X connect 35 0 36 0;
#X connect 35 0 66 0;
#X connect 36 0 32 0;
#X connect 38 0 39 0;
#X connect 39 0 94 0;
#X connect 41 0 42 0;
#X connect 41 0 68 0;
#X connect 42 0 38 0;
#X connect 44 0 45 0;
#X connect 45 0 96 0;
#X connect 46 0 49 0;
#X connect 46 0 72 0;
#X connect 48 0 9 0;
#X connect 49 0 44 0;
#X connect 50 0 57 0;
#X connect 51 0 97 0;
#X connect 52 0 101 0;
#X connect 53 0 2 0;
#X connect 53 1 4 0;
#X connect 54 0 50 0;
#X connect 54 1 4 0;
#X connect 55 0 56 0;
#X connect 56 0 7 0;
#X connect 57 0 7 0;
#X connect 58 0 52 0;
#X connect 59 0 58 0;
#X connect 60 0 19 0;
#X connect 61 0 60 1;
#X connect 62 0 18 0;
#X connect 63 0 62 1;
#X connect 64 0 25 0;
#X connect 65 0 64 1;
#X connect 66 0 37 0;
#X connect 67 0 66 1;
#X connect 68 0 43 0;
#X connect 69 0 68 1;
#X connect 70 0 31 0;
#X connect 71 0 70 1;
#X connect 72 0 47 0;
#X connect 73 0 72 1;
#X connect 74 0 51 0;
#X connect 75 0 0 0;
#X connect 76 0 14 0;
#X connect 77 0 23 0;
#X connect 78 0 35 0;
#X connect 79 0 41 0;
#X connect 80 0 29 0;
#X connect 81 0 0 0;
#X connect 82 0 14 0;
#X connect 83 0 23 0;
#X connect 84 0 35 0;
#X connect 85 0 41 0;
#X connect 86 0 29 0;
#X connect 87 0 11 0;
#X connect 88 0 1 0;
#X connect 89 0 7 0;
#X connect 97 1 52 0;
#X connect 98 0 6 0;
#X connect 99 0 55 0;
#X connect 99 1 4 0;
#X connect 100 0 98 0;
#X connect 100 1 4 0;
#X connect 101 0 53 0;
#X connect 101 1 54 0;
#X connect 101 2 99 0;
#X connect 101 3 100 0;
#X restore 65 213 pd audio-master;
#N canvas 975 116 945 636 video-master 0;
#X obj 91 285 route shape;
#X floatatom 89 346 5 0 0 0 - - -, f 5;
#X floatatom 129 346 5 0 0 0 - - -, f 5;
#X floatatom 168 346 5 0 0 0 - - -, f 5;
#X floatatom 206 346 5 0 0 0 - - -, f 5;
#X obj 89 310 unpack f f f f;
#X floatatom 39 371 5 0 0 0 - - -, f 5;
#X obj 206 371 t b f;
#X obj 168 371 t b f;
#X obj 89 371 t b f;
#X obj 129 371 t b f;
#X text 89 241 RECEIVE FROM CONTROLER;
#X obj 127 453 list prepend send;
#X obj 127 475 list trim;
#X obj 127 433 oscformat video shape;
#X obj 42 170 netsend -u -b;
#X obj 42 98 bng 15 250 50 0 empty net-connect connecting 22 7 0 10
-262144 -260097 -260097;
#X obj 42 193 tgl 15 0 empty empty connected 20 7 0 10 -1 -260097 -260097
1 1;
#X obj 42 74 bng 15 250 50 0 empty empty disconnecting 22 7 0 10 -262144
-260097 -260097;
#X msg 42 138 disconnect;
#X msg 582 118 connect localhost 8003;
#X msg 42 118 connect backup-video-slave 8003;
#X text 293 -8 VIDEO SLAVE;
#X obj 127 407 pack f f f f f;
#X msg 39 389 bang;
#X obj 242 97 bng 15 250 50 0 empty net-connect connecting 22 7 0 10
-262144 -260097 -260097;
#X obj 68 56 t b b;
#X obj 109 56 t b b;
#X obj 148 56 t b b;
#X obj 412 97 bng 15 250 50 0 empty net-connect connecting 22 7 0 10
-262144 -260097 -260097;
#X msg 195 -10 0;
#X msg 242 117 connect 10.3.141.105 8003;
#X msg 412 117 connect 10.3.141.187 8003;
#X floatatom 91 8 5 0 0 0 - - -, f 5;
#X obj 61 -37 route brassage;
#X text 90 -83 RECEIVE FROM CONTROLER;
#X obj 195 -59 loadbang;
#X obj 263 425 spigot;
#X obj 296 401 r print;
#X obj 263 454 print video-id(master);
#X obj 171 260 r \$0-defaut-shape;
#X obj 127 497 s \$0-video-pack;
#X obj 141 170 r \$0-video-pack;
#X obj 91 260 r \$0-route;
#X obj 61 -62 r \$0-route;
#X obj 62 -16 unpack f f f f;
#X obj 582 98 bng 15 250 50 0 empty net-connect connecting 22 7 0 10
-262144 -260097 -260097;
#X obj 188 56 t b b;
#X obj 69 31 sel 0 1 2 3;
#X obj 39 348 r \$0-id;
#X connect 0 0 5 0;
#X connect 1 0 9 0;
#X connect 2 0 10 0;
#X connect 3 0 8 0;
#X connect 4 0 7 0;
#X connect 5 0 1 0;
#X connect 5 1 2 0;
#X connect 5 2 3 0;
#X connect 5 3 4 0;
#X connect 6 0 23 0;
#X connect 7 1 23 4;
#X connect 8 1 23 3;
#X connect 9 0 24 0;
#X connect 9 1 23 1;
#X connect 10 0 24 0;
#X connect 10 1 23 2;
#X connect 12 0 13 0;
#X connect 13 0 41 0;
#X connect 14 0 12 0;
#X connect 15 0 17 0;
#X connect 16 0 21 0;
#X connect 18 0 19 0;
#X connect 19 0 15 0;
#X connect 20 0 15 0;
#X connect 21 0 15 0;
#X connect 23 0 14 0;
#X connect 23 0 37 0;
#X connect 24 0 23 0;
#X connect 25 0 31 0;
#X connect 26 0 16 0;
#X connect 26 1 18 0;
#X connect 27 0 25 0;
#X connect 27 1 18 0;
#X connect 28 0 29 0;
#X connect 28 1 18 0;
#X connect 29 0 32 0;
#X connect 30 0 33 0;
#X connect 31 0 15 0;
#X connect 32 0 15 0;
#X connect 33 0 48 0;
#X connect 34 0 45 0;
#X connect 36 0 30 0;
#X connect 37 0 39 0;
#X connect 38 0 37 1;
#X connect 40 0 5 0;
#X connect 42 0 15 0;
#X connect 43 0 0 0;
#X connect 44 0 34 0;
#X connect 45 2 33 0;
#X connect 46 0 20 0;
#X connect 47 0 46 0;
#X connect 47 1 18 0;
#X connect 48 0 26 0;
#X connect 48 1 27 0;
#X connect 48 2 28 0;
#X connect 48 3 47 0;
#X connect 49 0 6 0;
#X restore 65 241 pd video-master;
#N canvas 637 237 773 636 video2-master 0;
#X obj 91 285 route shape;
#X floatatom 89 346 5 0 0 0 - - -, f 5;
#X floatatom 129 346 5 0 0 0 - - -, f 5;
#X floatatom 168 346 5 0 0 0 - - -, f 5;
#X floatatom 206 346 5 0 0 0 - - -, f 5;
#X obj 89 310 unpack f f f f;
#X floatatom 29 371 5 0 0 0 - - -, f 5;
#X obj 206 371 t b f;
#X obj 168 371 t b f;
#X obj 89 371 t b f;
#X obj 129 371 t b f;
#X text 89 241 RECEIVE FROM CONTROLER;
#X obj 127 453 list prepend send;
#X obj 127 475 list trim;
#X obj 127 433 oscformat video shape;
#X obj 32 160 netsend -u -b;
#X obj 42 98 bng 15 250 50 0 empty net-connect connecting 22 7 0 10
-262144 -260097 -260097;
#X obj 32 183 tgl 15 0 empty empty connected 20 7 0 10 -1 -260097 -260097
1 1;
#X obj 42 74 bng 15 250 50 0 empty empty disconnecting 22 7 0 10 -262144
-260097 -260097;
#X msg 42 138 disconnect;
#X text 293 -8 VIDEO SLAVE;
#X obj 127 407 pack f f f f f;
#X msg 32 388 bang;
#X obj 242 97 bng 15 250 50 0 empty net-connect connecting 22 7 0 10
-262144 -260097 -260097;
#X obj 68 56 t b b;
#X obj 108 56 t b b;
#X obj 148 56 t b b;
#X obj 412 97 bng 15 250 50 0 empty net-connect connecting 22 7 0 10
-262144 -260097 -260097;
#X floatatom 62 7 5 0 0 0 - - -, f 5;
#X obj 61 -37 route brassage;
#X text 90 -83 RECEIVE FROM CONTROLER;
#X text 276 -38 video-slave2;
#X msg 42 118 connect 10.3.141.66 8004;
#X obj 263 454 print video2-id(master);
#X msg 582 118 connect localhost 8004;
#X msg 242 117 connect 10.3.141.105 8004;
#X msg 412 117 connect 10.3.141.187 8004;
#X msg 195 -11 0;
#X obj 195 -59 loadbang;
#X obj 263 425 spigot;
#X obj 296 401 r print;
#X obj 91 260 r \$0-route;
#X obj 61 -62 r \$0-route;
#X obj 179 260 r \$0-defaut-shape;
#X obj 127 496 s \$0-video2-pack;
#X obj 130 160 r \$0-video2-pack;
#X obj 62 29 sel 0 1 2 3;
#X obj 582 97 bng 15 250 50 0 empty net-connect connecting 22 7 0 10
-262144 -260097 -260097;
#X obj 62 -16 unpack f f f f;
#X obj 188 56 t b b;
#X obj 29 348 r \$0-id;
#X connect 0 0 5 0;
#X connect 1 0 9 0;
#X connect 2 0 10 0;
#X connect 3 0 8 0;
#X connect 4 0 7 0;
#X connect 5 0 1 0;
#X connect 5 1 2 0;
#X connect 5 2 3 0;
#X connect 5 3 4 0;
#X connect 6 0 21 0;
#X connect 7 1 21 4;
#X connect 8 1 21 3;
#X connect 9 0 22 0;
#X connect 9 1 21 1;
#X connect 10 0 22 0;
#X connect 10 1 21 2;
#X connect 12 0 13 0;
#X connect 13 0 44 0;
#X connect 14 0 12 0;
#X connect 15 0 17 0;
#X connect 16 0 32 0;
#X connect 18 0 19 0;
#X connect 19 0 15 0;
#X connect 21 0 14 0;
#X connect 21 0 39 0;
#X connect 22 0 21 0;
#X connect 23 0 35 0;
#X connect 24 0 16 0;
#X connect 24 1 18 0;
#X connect 25 0 23 0;
#X connect 25 1 18 0;
#X connect 26 0 27 0;
#X connect 26 1 18 0;
#X connect 27 0 36 0;
#X connect 28 0 46 0;
#X connect 29 0 48 0;
#X connect 32 0 15 0;
#X connect 34 0 15 0;
#X connect 35 0 15 0;
#X connect 36 0 15 0;
#X connect 37 0 28 0;
#X connect 38 0 37 0;
#X connect 39 0 33 0;
#X connect 40 0 39 1;
#X connect 41 0 0 0;
#X connect 42 0 29 0;
#X connect 43 0 5 0;
#X connect 45 0 15 0;
#X connect 46 0 24 0;
#X connect 46 1 25 0;
#X connect 46 2 26 0;
#X connect 46 3 49 0;
#X connect 47 0 34 0;
#X connect 48 3 28 0;
#X connect 49 0 47 0;
#X connect 49 1 18 0;
#X connect 50 0 6 0;
#X restore 62 269 pd video2-master;
#N canvas 2230 176 331 766 loadbang 0;
#X text 8 68 set MAX 127;
#X text 9 104 set HOLD 3000;
#X obj 8 2 loadbang;
#X text 9 86 set FADEIN 3000;
#X text 9 121 set FADEOUT 3000;
#X obj 12 185 loadbang;
#X text 9 248 set ON/OFF 1;
#X text 10 266 set CADENCE 9000;
#X msg 12 207 1 9000;
#X msg 8 24 127 3000 3000 3000;
#X obj 12 332 loadbang;
#X text 62 2 LOAD SHAPE;
#X text 67 185 LOAD CADENCE;
#X text 67 333 LOAD AUDIO-VOL;
#X text 10 446 set SPK3 0;
#X text 10 463 set SPK4 0;
#X obj 12 532 loadbang;
#X text 67 533 LOAD REVERB;
#X text 11 611 set DAMPING 0;
#X text 11 680 set FREEZ 0;
#X text 11 697 set BYPASS 0;
#X msg 12 554 100 0 64 100 30 0 0;
#X text 10 593 set ROOMSIZE 100;
#X text 11 629 set WIDTH 64;
#X text 11 646 set WET 100;
#X text 11 663 set DRY 30;
#X obj 162 425 loadbang;
#X msg 162 447 1 9000;
#X text 217 425 LOAD DELAY;
#X text 159 488 set DELAY 40;
#X text 160 506 set FEEDBACK;
#X text 160 71 set RED 100;
#X text 161 89 set GREEN 100;
#X obj 162 5 loadbang;
#X msg 162 28 100 100 1 5;
#X text 217 5 LOAD BACKGROUND;
#X text 161 107 set BLUE 1;
#X text 161 124 set LEVEL 5;
#X obj 162 182 loadbang;
#X text 217 183 LOAD FX;
#X msg 162 204 10 20 30 40 50 60 70 80;
#X text 160 243 set FX1 10;
#X text 161 261 set FX2 20;
#X text 161 279 set FX3 30;
#X text 161 296 set FX4 40;
#X text 161 313 set FX5 50;
#X text 161 330 set FX6 60;
#X text 161 347 set FX7 70;
#X text 161 364 set FX8 80;
#X obj 8 44 s \$0-defaut-shape;
#X obj 162 49 s \$0-defaut-background;
#X obj 12 229 s \$0-defaut-cadence;
#X obj 162 224 s \$0-defaut-fx;
#X obj 12 374 s \$0-defaut-vol;
#X obj 12 574 s \$0-defaut-reverb;
#X obj 162 469 s \$0-defaut-delay;
#X msg 12 354 100 64 64 0 0;
#X text 9 393 set MAIN 100;
#X text 10 411 set SPK1 64;
#X text 10 429 set SPK2 64;
#X connect 2 0 9 0;
#X connect 5 0 8 0;
#X connect 8 0 51 0;
#X connect 9 0 49 0;
#X connect 10 0 56 0;
#X connect 16 0 21 0;
#X connect 21 0 54 0;
#X connect 26 0 27 0;
#X connect 27 0 55 0;
#X connect 33 0 34 0;
#X connect 34 0 50 0;
#X connect 38 0 40 0;
#X connect 40 0 52 0;
#X connect 56 0 53 0;
#X restore 78 68 pd loadbang;
#X obj 84 152 loadbang;
#X obj 103 170 tgl 15 0 empty empty empty 17 7 0 10 -262144 -1 -1 0
1;
#X obj 84 336 s print;
#X obj 84 318 tgl 15 0 empty empty empty 17 7 0 10 -262144 -1 -1 0
1;
#X obj 84 297 loadbang;
#N canvas 2648 404 203 189 OSC-ROUTER-master 0;
#X obj 23 94 oscparse;
#X obj 23 118 list trim;
#X msg 23 52 listen 8000;
#X obj 23 35 bng 15 250 50 0 empty net-connect connecting 22 7 0 10
-262144 -260097 -260097;
#X obj 23 12 loadbang;
#X text 90 11 FROM CONTROLER;
#X obj 23 73 netreceive -u -b 8000;
#X obj 24 141 s \$0-route;
#X connect 0 0 1 0;
#X connect 1 0 7 0;
#X connect 2 0 6 0;
#X connect 3 0 2 0;
#X connect 4 0 3 0;
#X connect 6 0 0 0;
#X restore 55 96 pd OSC-ROUTER-master;
#X text 297 65 preset par defaut;
#X text 244 94 aquisition des message OSC;
#X text 262 123 sequence csv [textfile];
#X text 178 168 [comport] deconecter si pas de teensy;
#X text 286 186 gestion light slave;
#X text 286 210 gestion audio slave;
#X text 286 237 gestion video slave;
#X text 280 266 gestion video2 slave;
#X text 294 316 print or not print;
#X text 71 31 BACKUP MASTER;
#X connect 6 0 7 0;
#X connect 7 0 1 0;
#X connect 9 0 8 0;
#X connect 10 0 9 0;
