#N canvas 947 240 1033 410 10;
#N canvas 2236 298 918 632 background-color 0;
#X obj 111 148 hsl 128 15 0 255 0 0 empty empty empty -2 -8 0 10 -258113
-260097 -260097 2490 1;
#X obj 110 212 hsl 128 15 0 255 0 0 \$0-speaker2-slider.s \$0-speaker2-slider.r
empty -2 -8 0 10 -5824 -260097 -260097 2490 1;
#X obj 111 180 hsl 128 15 0 255 0 0 empty empty empty -2 -8 0 10 -4034
-260097 -262144 0 1;
#X obj 110 244 hsl 128 15 1 127 0 0 empty empty empty -2 -8 0 10 -262144
-260097 -260097 403 1;
#X obj 187 163 nbx 5 14 -1e+37 1e+37 0 0 empty empty empty 0 -8 0 10
-262144 -1 -1 0 256;
#X obj 187 227 nbx 5 14 -1e+37 1e+37 0 0 empty empty empty 0 -8 0 10
-262144 -1 -1 100 256;
#X obj 187 195 nbx 5 14 -1e+37 1e+37 0 0 empty empty empty 0 -8 0 10
-262144 -1 -1 0 256;
#X obj 187 259 nbx 5 14 -1e+37 1e+37 0 0 empty empty empty 0 -8 0 10
-262144 -1 -1 2 256;
#X obj 109 303 i;
#X obj 305 452 s controler-pack;
#X obj 109 452 list prepend send;
#X obj 235 452 list trim;
#X floatatom 109 327 5 0 0 0 - - -, f 5;
#X floatatom 155 328 5 0 0 0 - - -, f 5;
#X floatatom 205 328 5 0 0 0 - - -, f 5;
#X floatatom 255 328 5 0 0 0 - - -, f 5;
#X obj 255 351 t b f;
#X obj 156 351 t b f;
#X msg 109 389 bang;
#X obj 205 351 t b f;
#X obj 109 348 t b f;
#X obj 109 407 pack f f f f;
#X obj 109 432 oscformat light colors;
#X text 171 147 RED (1-255);
#X text 158 243 Level (1-127);
#X obj 154 303 i;
#X obj 204 303 i;
#X obj 254 303 i;
#N canvas 1470 470 450 300 set-background 0;
#X text 345 87 set BLUE 0;
#X text 345 104 set level 10;
#X text 344 51 set RED 100;
#X text 345 69 set GREEN 100;
#X text 108 51 SET BACKGROUND ON START UP;
#X obj 41 75 delay 50;
#X obj 120 75 delay 50;
#X obj 200 75 delay 50;
#X obj 279 75 delay 50;
#X obj 92 147 outlet;
#X obj 132 147 outlet;
#X obj 172 147 outlet;
#X obj 211 147 outlet;
#X obj 41 49 inlet;
#X msg 211 105 5;
#X msg 92 107 50;
#X msg 172 106 50;
#X msg 132 107 0;
#X connect 5 0 15 0;
#X connect 5 0 6 0;
#X connect 6 0 17 0;
#X connect 6 0 7 0;
#X connect 7 0 16 0;
#X connect 7 0 8 0;
#X connect 8 0 14 0;
#X connect 13 0 5 0;
#X connect 14 0 12 0;
#X connect 15 0 9 0;
#X connect 16 0 11 0;
#X connect 17 0 10 0;
#X restore 108 50 pd set-background;
#X obj 226 -41 loadbang;
#X msg 226 8 bang;
#X obj 226 130 bng 15 250 50 0 empty empty empty 17 7 0 10 -262144
-1 -1;
#X text 192 130 reset;
#X obj 4 431 spigot;
#X obj 140 129 tgl 15 0 empty empty empty 17 7 0 10 -262144 -1 -1 0
1;
#X text 106 128 print;
#X obj -60 452 print background(interface);
#X text 159 179 GREEN (1-255);
#X text 158 211 BLUE (1-255);
#X obj 15 50 r reload;
#X obj 15 84 bng 15 250 50 0 empty empty empty 17 7 0 10 -262144 -1
-1;
#X connect 0 0 8 0;
#X connect 1 0 26 0;
#X connect 2 0 25 0;
#X connect 3 0 27 0;
#X connect 4 0 0 0;
#X connect 5 0 1 0;
#X connect 6 0 2 0;
#X connect 7 0 3 0;
#X connect 8 0 12 0;
#X connect 10 0 11 0;
#X connect 11 0 9 0;
#X connect 12 0 20 0;
#X connect 13 0 17 0;
#X connect 14 0 19 0;
#X connect 15 0 16 0;
#X connect 16 0 18 0;
#X connect 16 1 21 3;
#X connect 17 0 18 0;
#X connect 17 1 21 1;
#X connect 18 0 21 0;
#X connect 19 0 18 0;
#X connect 19 1 21 2;
#X connect 20 1 21 0;
#X connect 21 0 22 0;
#X connect 21 0 33 0;
#X connect 22 0 10 0;
#X connect 25 0 13 0;
#X connect 26 0 14 0;
#X connect 27 0 15 0;
#X connect 28 0 0 0;
#X connect 28 1 2 0;
#X connect 28 2 1 0;
#X connect 28 3 3 0;
#X connect 29 0 30 0;
#X connect 30 0 28 0;
#X connect 31 0 30 0;
#X connect 33 0 36 0;
#X connect 34 0 33 1;
#X connect 39 0 40 0;
#X connect 40 0 21 0;
#X coords 0 -1 1 1 150 180 1 100 100;
#X restore 174 217 pd background-color;
#N canvas 2925 239 740 590 shape 0;
#X obj 111 156 hsl 128 15 1 255 0 0 empty empty empty -2 -8 0 10 -262144
-260097 -260097 8950 1;
#X obj 108 142 nbx 5 14 -1e+37 1e+37 0 0 empty empty empty 0 -8 0 10
-262144 -1 -1 0 256;
#X obj 111 191 hsl 128 15 1 5000 0 0 empty empty empty -2 -8 0 10 -262144
-260097 -260097 7619 1;
#X obj 108 177 nbx 5 14 -1e+37 1e+37 0 0 empty empty empty 0 -8 0 10
-262144 -1 -1 900 256;
#X obj 112 261 hsl 128 15 1 5000 0 0 empty empty empty -2 -8 0 10 -262144
-260097 -260097 7619 1;
#X obj 109 247 nbx 5 14 -1e+37 1e+37 0 0 empty empty empty 0 -8 0 10
-262144 -1 -1 900 256;
#X obj 111 226 hsl 128 15 1 7000 0 0 empty empty empty -2 -8 0 10 -262144
-260097 -260097 5442 1;
#X obj 108 212 nbx 5 14 -1e+37 1e+37 0 0 empty empty empty 0 -8 0 10
-262144 -1 -1 2000 256;
#X obj 112 452 list prepend send;
#X obj 238 452 list trim;
#X floatatom 112 347 5 0 0 0 - - -, f 5;
#X floatatom 159 348 5 0 0 0 - - -, f 5;
#X floatatom 208 348 5 0 0 0 - - -, f 5;
#X floatatom 258 348 5 0 0 0 - - -, f 5;
#X obj 258 371 t b f;
#X obj 159 371 t b f;
#X msg 112 389 bang;
#X obj 208 371 t b f;
#X obj 112 370 t b f;
#X obj 112 407 pack f f f f;
#X obj 112 432 oscformat shape;
#X text 219 155 max;
#X text 201 189 fadein;
#X text 213 224 hold;
#X text 196 260 fadeout;
#X obj 112 324 i;
#X obj 159 325 i;
#X obj 208 325 i;
#X obj 258 325 i;
#N canvas 2322 419 450 300 set-shape 0;
#X text 314 51 set MAX 127;
#X text 315 87 set HOLD 3000;
#X text 315 104 set FADEOUT 1000;
#X text 153 50 SET SHAPE ON START UP;
#X msg 172 106 3000;
#X obj 92 150 outlet;
#X obj 134 150 outlet;
#X obj 177 150 outlet;
#X obj 219 150 outlet;
#X obj 92 49 inlet;
#X text 315 69 set FADEIN 3000;
#X msg 132 107 3000;
#X msg 211 105 3000;
#X msg 92 107 180;
#X connect 4 0 7 0;
#X connect 9 0 13 0;
#X connect 9 0 11 0;
#X connect 9 0 4 0;
#X connect 9 0 12 0;
#X connect 11 0 6 0;
#X connect 12 0 8 0;
#X connect 13 0 5 0;
#X restore 108 61 pd set-shape;
#X obj 226 -11 loadbang;
#X msg 226 38 bang;
#X obj 226 120 bng 15 250 50 0 empty empty empty 17 7 0 10 -262144
-1 -1;
#X obj 38 431 spigot;
#X obj 139 120 tgl 15 0 empty empty empty 17 7 0 10 -262144 -1 -1 0
1;
#X text 105 119 print;
#X obj -26 452 print shape(interface);
#X text 192 120 reset;
#X obj 308 452 s controler-pack;
#X obj 15 20 r reload;
#X obj 15 84 bng 15 250 50 0 empty empty empty 17 7 0 10 -262144 -1
-1;
#X floatatom 209 139 5 0 0 0 - - -, f 5;
#X floatatom 209 174 5 0 0 0 - - -, f 5;
#X floatatom 209 209 5 0 0 0 - - -, f 5;
#X floatatom 210 244 5 0 0 0 - - -, f 5;
#X obj 15 43 delay 20;
#X connect 0 0 25 0;
#X connect 0 0 41 0;
#X connect 1 0 0 0;
#X connect 2 0 26 0;
#X connect 2 0 42 0;
#X connect 3 0 2 0;
#X connect 4 0 28 0;
#X connect 4 0 44 0;
#X connect 5 0 4 0;
#X connect 6 0 27 0;
#X connect 6 0 43 0;
#X connect 7 0 6 0;
#X connect 8 0 9 0;
#X connect 9 0 38 0;
#X connect 10 0 18 0;
#X connect 11 0 15 0;
#X connect 12 0 17 0;
#X connect 13 0 14 0;
#X connect 14 0 16 0;
#X connect 14 1 19 3;
#X connect 15 0 16 0;
#X connect 15 1 19 1;
#X connect 16 0 19 0;
#X connect 17 0 16 0;
#X connect 17 1 19 2;
#X connect 18 0 16 0;
#X connect 18 1 19 0;
#X connect 19 0 33 0;
#X connect 19 0 20 0;
#X connect 20 0 8 0;
#X connect 25 0 10 0;
#X connect 26 0 11 0;
#X connect 27 0 12 0;
#X connect 28 0 13 0;
#X connect 29 0 0 0;
#X connect 29 1 2 0;
#X connect 29 2 6 0;
#X connect 29 3 4 0;
#X connect 30 0 31 0;
#X connect 31 0 29 0;
#X connect 32 0 31 0;
#X connect 33 0 36 0;
#X connect 34 0 33 1;
#X connect 39 0 45 0;
#X connect 40 0 19 0;
#X connect 45 0 40 0;
#X coords 0 -1 1 1 150 180 1 100 100;
#X restore 174 17 pd shape;
#N canvas 2638 448 928 593 audio-vol 0;
#X obj 111 165 hsl 128 15 1 127 0 0 empty empty empty -2 -8 0 10 -262144
-260097 -260097 11279 1;
#X obj 108 151 nbx 5 14 -1e+37 1e+37 0 0 empty empty empty 0 -8 0 10
-262144 -1 -1 100 256;
#X obj 111 199 hsl 128 15 1 127 0 0 empty empty empty -2 -8 0 10 -262144
-260097 -260097 6350 1;
#X obj 108 185 nbx 5 14 -1e+37 1e+37 0 0 empty empty empty 0 -8 0 10
-262144 -1 -1 64 256;
#X obj 112 267 hsl 128 15 1 127 0 0 empty empty empty -2 -8 0 10 -262144
-260097 -260097 0 1;
#X obj 109 253 nbx 5 14 -1e+37 1e+37 0 0 empty empty empty 0 -8 0 10
-262144 -1 -1 0 256;
#X obj 111 233 hsl 128 15 1 127 0 0 empty empty empty -2 -8 0 10 -262144
-260097 -260097 6350 1;
#X obj 108 219 nbx 5 14 -1e+37 1e+37 0 0 empty empty empty 0 -8 0 10
-262144 -1 -1 64 256;
#X obj 308 452 s controler-pack;
#X obj 112 452 list prepend send;
#X obj 238 452 list trim;
#X floatatom 112 347 5 0 0 0 - - -, f 5;
#X floatatom 159 348 5 0 0 0 - - -, f 5;
#X floatatom 208 348 5 0 0 0 - - -, f 5;
#X floatatom 258 348 5 0 0 0 - - -, f 5;
#X obj 258 371 t b f;
#X obj 159 371 t b f;
#X msg 112 389 bang;
#X obj 208 371 t b f;
#X obj 112 370 t b f;
#X obj 112 324 i;
#X obj 159 325 i;
#X obj 208 325 i;
#X obj 258 325 i;
#X floatatom 298 348 5 0 0 0 - - -, f 5;
#X obj 298 371 t b f;
#X obj 298 325 i;
#X text 213 164 main;
#X obj 112 301 hsl 128 15 1 127 0 0 empty empty empty -2 -8 0 10 -262144
-260097 -260097 0 1;
#X obj 109 287 nbx 5 14 -1e+37 1e+37 0 0 empty empty empty 0 -8 0 10
-262144 -1 -1 0 256;
#X text 213 196 spk1;
#X text 213 229 spk2;
#X text 214 264 spk3;
#X text 214 298 spk4;
#X obj 112 407 pack f f f f f;
#N canvas 2228 360 450 300 set-audio-vol 0;
#X text 153 50 SET SHAPE ON START UP;
#X obj 92 150 outlet;
#X obj 134 150 outlet;
#X obj 177 150 outlet;
#X obj 219 150 outlet;
#X text 315 69 set SPK1 64;
#X text 315 87 set SPK2 64;
#X text 315 104 set SPK3 0;
#X text 315 121 set SPK4 0;
#X msg 132 107 64;
#X obj 261 150 outlet;
#X msg 172 106 64;
#X obj 92 49 inlet;
#X text 314 51 set MAIN 30;
#X msg 92 107 100;
#X msg 253 105 0;
#X msg 211 105 0;
#X connect 9 0 2 0;
#X connect 11 0 3 0;
#X connect 12 0 14 0;
#X connect 12 0 9 0;
#X connect 12 0 11 0;
#X connect 12 0 16 0;
#X connect 12 0 15 0;
#X connect 14 0 1 0;
#X connect 15 0 10 0;
#X connect 16 0 4 0;
#X restore 108 70 pd set-audio-vol;
#X obj 227 3 loadbang;
#X msg 217 35 bang;
#X obj 225 129 bng 15 250 50 0 empty empty empty 17 7 0 10 -262144
-1 -1;
#X obj 48 431 spigot;
#X obj 140 129 tgl 15 0 empty empty empty 17 7 0 10 -262144 -1 -1 0
1;
#X text 106 128 print;
#X obj -16 453 print vol(interface);
#X obj 112 432 oscformat vol;
#X obj 15 30 r reload;
#X obj 15 54 bng 15 250 50 0 empty empty empty 17 7 0 10 -262144 -1
-1;
#X floatatom 209 148 5 0 0 0 - - -, f 5;
#X floatatom 209 182 5 0 0 0 - - -, f 5;
#X floatatom 209 216 5 0 0 0 - - -, f 5;
#X floatatom 210 250 5 0 0 0 - - -, f 5;
#X floatatom 210 284 5 0 0 0 - - -, f 5;
#X text 191 128 reset;
#X connect 0 0 20 0;
#X connect 0 0 46 0;
#X connect 1 0 0 0;
#X connect 2 0 21 0;
#X connect 2 0 47 0;
#X connect 3 0 2 0;
#X connect 4 0 23 0;
#X connect 4 0 49 0;
#X connect 5 0 4 0;
#X connect 6 0 22 0;
#X connect 6 0 48 0;
#X connect 7 0 6 0;
#X connect 9 0 10 0;
#X connect 10 0 8 0;
#X connect 11 0 19 0;
#X connect 12 0 16 0;
#X connect 13 0 18 0;
#X connect 14 0 15 0;
#X connect 15 0 17 0;
#X connect 15 1 34 3;
#X connect 16 0 17 0;
#X connect 16 1 34 1;
#X connect 17 0 34 0;
#X connect 18 0 17 0;
#X connect 18 1 34 2;
#X connect 19 0 17 0;
#X connect 19 1 34 0;
#X connect 20 0 11 0;
#X connect 21 0 12 0;
#X connect 22 0 13 0;
#X connect 23 0 14 0;
#X connect 24 0 25 0;
#X connect 25 0 17 0;
#X connect 25 1 34 4;
#X connect 26 0 24 0;
#X connect 28 0 26 0;
#X connect 28 0 50 0;
#X connect 29 0 28 0;
#X connect 34 0 39 0;
#X connect 34 0 43 0;
#X connect 35 0 1 0;
#X connect 35 1 3 0;
#X connect 35 2 7 0;
#X connect 35 3 5 0;
#X connect 35 4 29 0;
#X connect 36 0 37 0;
#X connect 37 0 35 0;
#X connect 38 0 37 0;
#X connect 39 0 42 0;
#X connect 40 0 39 1;
#X connect 43 0 9 0;
#X connect 44 0 45 0;
#X connect 45 0 34 0;
#X coords 0 -1 1 1 150 220 1 100 100;
#X restore 334 17 pd audio-vol;
#N canvas 2444 324 740 593 audio-delay 0;
#X obj 111 162 hsl 128 15 1 127 0 0 empty empty empty -2 -8 0 10 -262144
-260097 -260097 907 1;
#X obj 188 178 nbx 5 14 -1e+37 1e+37 0 0 empty empty empty 0 -8 0 10
-262144 -1 -1 0 256;
#X obj 111 194 hsl 128 15 1 127 0 0 empty empty empty -2 -8 0 10 -262144
-260097 -260097 0 1;
#X obj 187 209 nbx 5 14 -1e+37 1e+37 0 0 empty empty empty 0 -8 0 10
-262144 -1 -1 0 256;
#X obj 308 452 s controler-pack;
#X obj 112 452 list prepend send;
#X obj 238 452 list trim;
#X floatatom 112 347 5 0 0 0 - - -, f 5;
#X floatatom 159 348 5 0 0 0 - - -, f 5;
#X obj 159 371 t b f;
#X msg 112 389 bang;
#X obj 112 370 t b f;
#X obj 112 324 i;
#X obj 159 325 i;
#X obj 226 3 loadbang;
#X msg 226 52 bang;
#X obj 226 144 bng 15 250 50 0 empty empty empty 17 7 0 10 -262144
-1 -1;
#X text 207 161 delay;
#X text 189 193 feedback;
#X obj 112 407 pack f f f;
#X floatatom 199 348 5 0 0 0 - - -, f 5;
#X obj 199 371 t b f;
#X obj 199 325 i;
#X text 156 143 reset delay;
#N canvas 3126 628 450 300 set-audio-delay 0;
#X obj 92 150 outlet;
#X obj 134 150 outlet;
#X obj 92 49 inlet;
#X text 315 69 set FEEDBACK 0;
#X text 314 51 set DELAY 10;
#X msg 92 107 10;
#X msg 134 107 0;
#X text 153 50 SET DELAY ON START UP;
#X obj 177 150 outlet;
#X msg 177 107 0;
#X text 315 89 set ON 0;
#X connect 2 0 5 0;
#X connect 2 0 6 0;
#X connect 2 0 9 0;
#X connect 5 0 0 0;
#X connect 6 0 1 0;
#X connect 9 0 8 0;
#X restore 108 70 pd set-audio-delay;
#X obj 226 227 tgl 15 0 empty empty empty 17 7 0 10 -262144 -1 -1 0
1;
#X text 186 227 on/off;
#X obj 38 385 spigot;
#X obj 140 144 tgl 15 0 empty empty empty 17 7 0 10 -262144 -1 -1 0
1;
#X text 106 143 print;
#X obj -27 407 print delay(interface);
#X obj 112 431 oscformat delay;
#X obj 15 84 bng 15 250 50 0 empty empty empty 17 7 0 10 -262144 -1
-1;
#X obj 15 30 r reload;
#X connect 0 0 12 0;
#X connect 1 0 0 0;
#X connect 2 0 13 0;
#X connect 3 0 2 0;
#X connect 5 0 6 0;
#X connect 6 0 4 0;
#X connect 7 0 11 0;
#X connect 8 0 9 0;
#X connect 9 0 10 0;
#X connect 9 1 19 1;
#X connect 10 0 19 0;
#X connect 11 0 10 0;
#X connect 11 1 19 0;
#X connect 12 0 7 0;
#X connect 13 0 8 0;
#X connect 14 0 15 0;
#X connect 15 0 24 0;
#X connect 16 0 15 0;
#X connect 19 0 27 0;
#X connect 19 0 31 0;
#X connect 20 0 21 0;
#X connect 21 0 10 0;
#X connect 21 1 19 2;
#X connect 22 0 20 0;
#X connect 24 0 0 0;
#X connect 24 1 2 0;
#X connect 24 2 25 0;
#X connect 25 0 22 0;
#X connect 27 0 30 0;
#X connect 28 0 27 1;
#X connect 31 0 5 0;
#X connect 32 0 19 0;
#X connect 33 0 32 0;
#X coords 0 -1 1 1 150 150 1 100 100;
#X restore 494 247 pd audio-delay;
#N canvas 2146 412 740 647 audio-eq 0;
#X obj 111 162 hsl 128 15 1 127 0 0 empty empty empty -2 -8 0 10 -262144
-260097 -260097 6350 1;
#X obj 108 148 nbx 5 14 -1e+37 1e+37 0 0 empty empty empty 0 -8 0 10
-262144 -1 -1 64 256;
#X obj 111 197 hsl 128 15 1 127 0 0 empty empty empty -2 -8 0 10 -262144
-260097 -260097 6350 1;
#X obj 108 183 nbx 5 14 -1e+37 1e+37 0 0 empty empty empty 0 -8 0 10
-262144 -1 -1 64 256;
#X obj 111 232 hsl 128 15 1 127 0 0 empty empty empty -2 -8 0 10 -262144
-260097 -260097 6350 1;
#X obj 108 218 nbx 5 14 -1e+37 1e+37 0 0 empty empty empty 0 -8 0 10
-262144 -1 -1 64 256;
#X obj 308 452 s controler-pack;
#X obj 112 452 list prepend send;
#X obj 238 452 list trim;
#X floatatom 112 347 5 0 0 0 - - -, f 5;
#X floatatom 159 348 5 0 0 0 - - -, f 5;
#X floatatom 208 348 5 0 0 0 - - -, f 5;
#X obj 159 371 t b f;
#X msg 112 389 bang;
#X obj 208 371 t b f;
#X obj 112 370 t b f;
#X obj 112 324 i;
#X obj 159 325 i;
#X obj 208 325 i;
#X obj 226 -7 loadbang;
#X msg 226 42 bang;
#X obj 226 126 bng 15 250 50 0 empty empty empty 17 7 0 10 -262144
-1 -1;
#N canvas 2927 460 450 300 set-audio-eq 0;
#X text 153 50 SET SHAPE ON START UP;
#X obj 92 150 outlet;
#X obj 134 150 outlet;
#X obj 177 150 outlet;
#X msg 134 107 64;
#X msg 177 106 64;
#X obj 92 49 inlet;
#X text 315 69 set MID 64;
#X text 315 87 set HIGH 64;
#X msg 92 107 64;
#X text 314 51 set BASS 64;
#X connect 4 0 2 0;
#X connect 5 0 3 0;
#X connect 6 0 9 0;
#X connect 6 0 4 0;
#X connect 6 0 5 0;
#X connect 9 0 1 0;
#X restore 108 70 pd set-audio-eq;
#X text 213 161 bass;
#X text 219 196 mid;
#X text 213 229 high;
#X obj 38 431 spigot;
#X obj 140 126 tgl 15 0 empty empty empty 17 7 0 10 -262144 -1 -1 0
1;
#X text 106 125 print;
#X obj -26 452 print eq(interface);
#X obj 112 407 pack f f f;
#X obj 112 432 oscformat eq;
#X obj 15 84 bng 15 250 50 0 empty empty empty 17 7 0 10 -262144 -1
-1;
#X floatatom 209 145 5 0 0 0 - - -, f 5;
#X floatatom 209 180 5 0 0 0 - - -, f 5;
#X floatatom 209 215 5 0 0 0 - - -, f 5;
#X text 192 126 reset;
#X obj 15 30 r reload;
#X connect 0 0 16 0;
#X connect 0 0 33 0;
#X connect 1 0 0 0;
#X connect 2 0 17 0;
#X connect 2 0 34 0;
#X connect 3 0 2 0;
#X connect 4 0 18 0;
#X connect 4 0 35 0;
#X connect 5 0 4 0;
#X connect 7 0 8 0;
#X connect 8 0 6 0;
#X connect 9 0 15 0;
#X connect 10 0 12 0;
#X connect 11 0 14 0;
#X connect 12 0 13 0;
#X connect 12 1 30 1;
#X connect 13 0 30 0;
#X connect 14 0 13 0;
#X connect 14 1 30 2;
#X connect 15 0 13 0;
#X connect 15 1 30 0;
#X connect 16 0 9 0;
#X connect 17 0 10 0;
#X connect 18 0 11 0;
#X connect 19 0 20 0;
#X connect 20 0 22 0;
#X connect 21 0 20 0;
#X connect 22 0 1 0;
#X connect 22 1 3 0;
#X connect 22 2 5 0;
#X connect 26 0 29 0;
#X connect 27 0 26 1;
#X connect 30 0 26 0;
#X connect 30 0 31 0;
#X connect 31 0 7 0;
#X connect 32 0 30 0;
#X connect 37 0 32 0;
#X coords 0 -1 1 1 150 150 1 100 100;
#X restore 334 247 pd audio-eq;
#N canvas 2711 210 740 862 audio-reverb 0;
#X obj 111 149 hsl 128 15 1 127 0 0 empty empty empty -2 -8 0 10 -262144
-260097 -260097 6350 1;
#X obj 108 135 nbx 5 14 -1e+37 1e+37 0 0 empty empty empty 0 -8 0 10
-262144 -1 -1 64 256;
#X obj 111 183 hsl 128 15 1 127 0 0 empty empty empty -2 -8 0 10 -262144
-260097 -260097 6350 1;
#X obj 108 169 nbx 5 14 -1e+37 1e+37 0 0 empty empty empty 0 -8 0 10
-262144 -1 -1 64 256;
#X obj 112 251 hsl 128 15 1 127 0 0 empty empty empty -2 -8 0 10 -262144
-260097 -260097 6350 1;
#X obj 109 237 nbx 5 14 -1e+37 1e+37 0 0 empty empty empty 0 -8 0 10
-262144 -1 -1 64 256;
#X obj 111 217 hsl 128 15 1 127 0 0 empty empty empty -2 -8 0 10 -262144
-260097 -260097 6350 1;
#X obj 108 203 nbx 5 14 -1e+37 1e+37 0 0 empty empty empty 0 -8 0 10
-262144 -1 -1 64 256;
#X obj 383 533 s controler-pack;
#X obj 187 533 list prepend send;
#X obj 313 533 list trim;
#X floatatom 107 397 5 0 0 0 - - -, f 5;
#X floatatom 154 398 5 0 0 0 - - -, f 5;
#X floatatom 203 398 5 0 0 0 - - -, f 5;
#X floatatom 253 398 5 0 0 0 - - -, f 5;
#X obj 253 421 t b f;
#X obj 154 421 t b f;
#X msg 107 439 bang;
#X obj 203 421 t b f;
#X obj 107 420 t b f;
#X obj 107 374 i;
#X obj 154 375 i;
#X obj 203 375 i;
#X obj 253 375 i;
#X floatatom 293 398 5 0 0 0 - - -, f 5;
#X obj 293 421 t b f;
#X obj 293 375 i;
#X obj 112 285 hsl 128 15 1 127 0 0 empty empty empty -2 -8 0 10 -262144
-260097 -260097 6350 1;
#X obj 109 271 nbx 5 14 -1e+37 1e+37 0 0 empty empty empty 0 -8 0 10
-262144 -1 -1 64 256;
#X obj 227 3 loadbang;
#X msg 217 35 bang;
#X obj 226 115 bng 15 250 50 0 empty empty empty 17 7 0 10 -262144
-1 -1;
#N canvas 1283 448 450 300 set-audio-reverb 0;
#X obj 12 150 outlet;
#X obj 54 150 outlet;
#X obj 97 150 outlet;
#X obj 139 150 outlet;
#X msg 52 107 64;
#X obj 181 150 outlet;
#X msg 92 106 64;
#X msg 131 105 64;
#X msg 173 105 64;
#X obj 92 49 inlet;
#X text 314 51 set ROOMSIZE 64;
#X text 315 69 set DAMPING 64;
#X text 315 87 set WIDTH 64;
#X text 153 50 SET REVERB ON START UP;
#X msg 12 107 64;
#X text 315 104 set WET 10;
#X text 315 121 set DRY 110;
#X text 315 138 set FREEZ 0;
#X obj 225 150 outlet;
#X obj 267 150 outlet;
#X msg 217 105 0;
#X text 315 155 set BYPASS 0;
#X msg 259 105 0;
#X connect 4 0 1 0;
#X connect 6 0 2 0;
#X connect 7 0 3 0;
#X connect 8 0 5 0;
#X connect 9 0 14 0;
#X connect 9 0 4 0;
#X connect 9 0 6 0;
#X connect 9 0 7 0;
#X connect 9 0 8 0;
#X connect 9 0 20 0;
#X connect 9 0 22 0;
#X connect 14 0 0 0;
#X connect 20 0 18 0;
#X connect 22 0 19 0;
#X restore 108 70 pd set-audio-reverb;
#X text 220 250 wet;
#X text 220 285 dry;
#X text 189 148 roomsize;
#X text 195 181 damping;
#X text 207 216 width;
#X obj 187 487 pack f f f f f f f;
#X floatatom 333 398 5 0 0 0 - - -, f 5;
#X obj 333 421 t b f;
#X obj 333 375 i;
#X floatatom 373 398 5 0 0 0 - - -, f 5;
#X obj 373 421 t b f;
#X obj 373 375 i;
#X obj 227 302 tgl 15 0 empty empty empty 17 7 0 10 -262144 -1 -1 0
1;
#X obj 144 302 tgl 15 0 empty empty empty 17 7 0 10 -262144 -1 -1 0
1;
#X text 110 302 freez;
#X obj 104 511 spigot;
#X obj 140 116 tgl 15 0 empty empty empty 17 7 0 10 -262144 -1 -1 0
1;
#X text 106 115 print;
#X text 192 115 reset;
#X obj 40 533 print reverb(interface);
#X obj 15 30 r reload;
#X obj 15 84 bng 15 250 50 0 empty empty empty 17 7 0 10 -262144 -1
-1;
#X floatatom 209 132 5 0 0 0 - - -, f 5;
#X floatatom 209 166 5 0 0 0 - - -, f 5;
#X floatatom 209 200 5 0 0 0 - - -, f 5;
#X floatatom 210 234 5 0 0 0 - - -, f 5;
#X floatatom 210 268 5 0 0 0 - - -, f 5;
#X text 187 302 bypass;
#X obj 187 512 oscformat reverb;
#X connect 0 0 20 0;
#X connect 0 0 55 0;
#X connect 1 0 0 0;
#X connect 2 0 21 0;
#X connect 2 0 56 0;
#X connect 3 0 2 0;
#X connect 4 0 23 0;
#X connect 4 0 58 0;
#X connect 5 0 4 0;
#X connect 6 0 22 0;
#X connect 6 0 57 0;
#X connect 7 0 6 0;
#X connect 9 0 10 0;
#X connect 10 0 8 0;
#X connect 11 0 19 0;
#X connect 12 0 16 0;
#X connect 13 0 18 0;
#X connect 14 0 15 0;
#X connect 15 0 17 0;
#X connect 15 1 38 3;
#X connect 16 0 17 0;
#X connect 16 1 38 1;
#X connect 17 0 38 0;
#X connect 18 0 17 0;
#X connect 18 1 38 2;
#X connect 19 0 17 0;
#X connect 19 1 38 0;
#X connect 20 0 11 0;
#X connect 21 0 12 0;
#X connect 22 0 13 0;
#X connect 23 0 14 0;
#X connect 24 0 25 0;
#X connect 25 0 17 0;
#X connect 25 1 38 4;
#X connect 26 0 24 0;
#X connect 27 0 26 0;
#X connect 27 0 59 0;
#X connect 28 0 27 0;
#X connect 29 0 30 0;
#X connect 30 0 32 0;
#X connect 31 0 30 0;
#X connect 32 0 1 0;
#X connect 32 1 3 0;
#X connect 32 2 7 0;
#X connect 32 3 5 0;
#X connect 32 4 28 0;
#X connect 32 5 46 0;
#X connect 32 6 45 0;
#X connect 38 0 48 0;
#X connect 38 0 61 0;
#X connect 39 0 40 0;
#X connect 40 0 17 0;
#X connect 40 1 38 5;
#X connect 41 0 39 0;
#X connect 42 0 43 0;
#X connect 43 0 17 0;
#X connect 43 1 38 6;
#X connect 44 0 42 0;
#X connect 45 0 44 0;
#X connect 46 0 41 0;
#X connect 48 0 52 0;
#X connect 49 0 48 1;
#X connect 53 0 54 0;
#X connect 54 0 38 0;
#X connect 61 0 9 0;
#X coords 0 -1 1 1 150 220 1 100 100;
#X restore 494 17 pd audio-reverb;
#N canvas 2406 196 1038 767 audio-fx 0;
#X obj 227 3 loadbang;
#X msg 227 35 bang;
#N canvas 2541 316 495 300 set-audio-fx 0;
#X obj 2 150 outlet;
#X obj 44 150 outlet;
#X obj 87 150 outlet;
#X obj 129 150 outlet;
#X obj 171 150 outlet;
#X obj 92 49 inlet;
#X obj 215 150 outlet;
#X obj 257 150 outlet;
#X obj 301 150 outlet;
#X text 153 50 SET FX ON START UP;
#X text 354 51 set FX1 0;
#X text 354 71 set FX2 0;
#X text 354 91 set FX3 0;
#X text 354 111 set FX4 0;
#X text 354 131 set FX5 0;
#X text 354 151 set FX6 0;
#X text 354 171 set FX7 0;
#X text 354 191 set FX8 0;
#X msg 2 107 10;
#X msg 42 107 20;
#X msg 83 106 30;
#X msg 121 105 40;
#X msg 163 105 50;
#X msg 207 105 60;
#X msg 249 105 70;
#X msg 293 105 80;
#X connect 5 0 18 0;
#X connect 5 0 19 0;
#X connect 5 0 20 0;
#X connect 5 0 21 0;
#X connect 5 0 22 0;
#X connect 5 0 23 0;
#X connect 5 0 24 0;
#X connect 5 0 25 0;
#X connect 18 0 0 0;
#X connect 19 0 1 0;
#X connect 20 0 2 0;
#X connect 21 0 3 0;
#X connect 22 0 4 0;
#X connect 23 0 6 0;
#X connect 24 0 7 0;
#X connect 25 0 8 0;
#X restore 108 70 pd set-audio-fx;
#X obj 15 30 r reload;
#X obj 15 84 bng 15 250 50 0 empty empty empty 17 7 0 10 -262144 -1
-1;
#X obj 111 149 hsl 128 15 1 127 0 0 empty empty empty -2 -8 0 10 -262144
-260097 -260097 907 1;
#X obj 108 135 nbx 5 14 -1e+37 1e+37 0 0 empty empty empty 0 -8 0 10
-262144 -1 -1 10 256;
#X obj 111 183 hsl 128 15 1 127 0 0 empty empty empty -2 -8 0 10 -262144
-260097 -260097 1915 1;
#X obj 108 169 nbx 5 14 -1e+37 1e+37 0 0 empty empty empty 0 -8 0 10
-262144 -1 -1 20 256;
#X obj 112 251 hsl 128 15 1 127 0 0 empty empty empty -2 -8 0 10 -262144
-260097 -260097 3931 1;
#X obj 109 237 nbx 5 14 -1e+37 1e+37 0 0 empty empty empty 0 -8 0 10
-262144 -1 -1 40 256;
#X obj 111 217 hsl 128 15 1 127 0 0 empty empty empty -2 -8 0 10 -262144
-260097 -260097 2923 1;
#X obj 108 203 nbx 5 14 -1e+37 1e+37 0 0 empty empty empty 0 -8 0 10
-262144 -1 -1 30 256;
#X obj 383 603 s controler-pack;
#X obj 187 603 list prepend send;
#X obj 313 603 list trim;
#X floatatom 107 467 5 0 0 0 - - -, f 5;
#X floatatom 154 468 5 0 0 0 - - -, f 5;
#X floatatom 203 468 5 0 0 0 - - -, f 5;
#X floatatom 253 468 5 0 0 0 - - -, f 5;
#X obj 253 491 t b f;
#X obj 154 491 t b f;
#X msg 107 509 bang;
#X obj 203 491 t b f;
#X obj 107 490 t b f;
#X obj 107 444 i;
#X obj 154 445 i;
#X obj 203 445 i;
#X obj 253 445 i;
#X floatatom 293 468 5 0 0 0 - - -, f 5;
#X obj 293 491 t b f;
#X obj 293 445 i;
#X obj 112 285 hsl 128 15 1 127 0 0 empty empty empty -2 -8 0 10 -262144
-260097 -260097 4939 1;
#X obj 109 271 nbx 5 14 -1e+37 1e+37 0 0 empty empty empty 0 -8 0 10
-262144 -1 -1 50 256;
#X obj 226 115 bng 15 250 50 0 empty empty empty 17 7 0 10 -262144
-1 -1;
#X floatatom 333 468 5 0 0 0 - - -, f 5;
#X obj 333 491 t b f;
#X obj 333 445 i;
#X floatatom 373 468 5 0 0 0 - - -, f 5;
#X obj 373 491 t b f;
#X obj 373 445 i;
#X obj 104 581 spigot;
#X obj 140 116 tgl 15 0 empty empty empty 17 7 0 10 -262144 -1 -1 0
1;
#X text 106 115 print;
#X text 192 115 reset;
#X floatatom 209 132 5 0 0 0 - - -, f 5;
#X floatatom 209 166 5 0 0 0 - - -, f 5;
#X floatatom 209 200 5 0 0 0 - - -, f 5;
#X floatatom 210 234 5 0 0 0 - - -, f 5;
#X floatatom 210 268 5 0 0 0 - - -, f 5;
#X obj 187 583 oscformat fx;
#X obj 39 603 print fx(interface);
#X obj 112 354 hsl 128 15 1 127 0 0 empty empty empty -2 -8 0 10 -262144
-260097 -260097 6955 1;
#X obj 109 340 nbx 5 14 -1e+37 1e+37 0 0 empty empty empty 0 -8 0 10
-262144 -1 -1 70 256;
#X obj 111 320 hsl 128 15 1 127 0 0 empty empty empty -2 -8 0 10 -262144
-260097 -260097 5947 1;
#X obj 108 306 nbx 5 14 -1e+37 1e+37 0 0 empty empty empty 0 -8 0 10
-262144 -1 -1 60 256;
#X obj 112 388 hsl 128 15 1 127 0 0 empty empty empty -2 -8 0 10 -262144
-260097 -260097 7963 1;
#X obj 109 374 nbx 5 14 -1e+37 1e+37 0 0 empty empty empty 0 -8 0 10
-262144 -1 -1 80 256;
#X floatatom 209 303 5 0 0 0 - - -, f 5;
#X floatatom 210 337 5 0 0 0 - - -, f 5;
#X floatatom 210 371 5 0 0 0 - - -, f 5;
#X text 219 148 fx1;
#X text 219 182 fx2;
#X text 219 216 fx3;
#X text 220 250 fx4;
#X text 220 284 fx5;
#X text 219 319 fx6;
#X text 220 354 fx7;
#X text 220 387 fx8;
#X floatatom 413 468 5 0 0 0 - - -, f 5;
#X obj 413 491 t b f;
#X obj 413 445 i;
#X obj 187 557 pack f f f f f f f f;
#X connect 0 0 1 0;
#X connect 1 0 2 0;
#X connect 2 0 6 0;
#X connect 2 1 8 0;
#X connect 2 2 12 0;
#X connect 2 3 10 0;
#X connect 2 4 33 0;
#X connect 2 5 55 0;
#X connect 2 6 53 0;
#X connect 2 7 57 0;
#X connect 3 0 4 0;
#X connect 4 0 72 0;
#X connect 5 0 25 0;
#X connect 5 0 45 0;
#X connect 6 0 5 0;
#X connect 7 0 26 0;
#X connect 7 0 46 0;
#X connect 8 0 7 0;
#X connect 9 0 28 0;
#X connect 9 0 48 0;
#X connect 10 0 9 0;
#X connect 11 0 27 0;
#X connect 11 0 47 0;
#X connect 12 0 11 0;
#X connect 14 0 15 0;
#X connect 15 0 13 0;
#X connect 16 0 24 0;
#X connect 17 0 21 0;
#X connect 18 0 23 0;
#X connect 19 0 20 0;
#X connect 20 0 22 0;
#X connect 20 1 72 3;
#X connect 21 0 22 0;
#X connect 21 1 72 1;
#X connect 22 0 72 0;
#X connect 23 0 22 0;
#X connect 23 1 72 2;
#X connect 24 0 22 0;
#X connect 24 1 72 0;
#X connect 25 0 16 0;
#X connect 26 0 17 0;
#X connect 27 0 18 0;
#X connect 28 0 19 0;
#X connect 29 0 30 0;
#X connect 30 0 22 0;
#X connect 30 1 72 4;
#X connect 31 0 29 0;
#X connect 32 0 31 0;
#X connect 32 0 49 0;
#X connect 33 0 32 0;
#X connect 34 0 1 0;
#X connect 35 0 36 0;
#X connect 36 0 22 0;
#X connect 36 1 72 5;
#X connect 37 0 35 0;
#X connect 38 0 39 0;
#X connect 39 0 22 0;
#X connect 39 1 72 6;
#X connect 40 0 38 0;
#X connect 41 0 51 0;
#X connect 42 0 41 1;
#X connect 50 0 14 0;
#X connect 52 0 59 0;
#X connect 52 0 40 0;
#X connect 53 0 52 0;
#X connect 54 0 58 0;
#X connect 54 0 37 0;
#X connect 55 0 54 0;
#X connect 56 0 60 0;
#X connect 56 0 71 0;
#X connect 57 0 56 0;
#X connect 69 0 70 0;
#X connect 70 0 22 0;
#X connect 70 1 72 7;
#X connect 71 0 69 0;
#X connect 72 0 41 0;
#X connect 72 0 50 0;
#X coords 0 -1 1 1 150 325 1 100 100;
#X restore 654 17 pd audio-fx;
#N canvas 2653 368 740 593 OSC-connexion 0;
#X obj 305 532 s controler-pack;
#X obj 109 532 list prepend send;
#X obj 235 532 list trim;
#X floatatom 159 428 5 0 0 0 - - -, f 5;
#X obj 159 451 t b f;
#X msg 109 469 bang;
#X obj 109 512 oscformat brassage;
#X obj 108 119 vradio 15 1 0 2 empty empty empty 0 -8 0 10 -262144
-260097 -1 1;
#X obj 108 189 vradio 15 1 0 4 empty empty empty 0 -8 0 10 -262144
-260097 -1 0;
#X text 126 186 audio slave;
#X text 127 257 video-slave;
#X obj 108 258 vradio 15 1 0 4 empty empty empty 0 -8 0 10 -262144
-260097 -1 3;
#X text 126 116 controler master;
#X text 126 286 video-local (b);
#X text 126 271 video-local (f);
#X text 127 201 audio local (f);
#X text 126 216 audio local (b);
#X obj 280 149 s connect;
#X obj 374 308 netsend -u -b;
#X obj 387 282 r controler-pack;
#X msg 374 256 connect localhost 8000;
#X obj 108 165 tgl 15 0 empty empty connected 20 7 0 10 -1 -260097
-260097 1 1;
#X msg 374 196 disconnect;
#X msg 374 226 connect backup-master 8000;
#X floatatom 367 108 5 0 0 0 - - -, f 5;
#X obj 367 87 r connect;
#X obj 374 157 t b b;
#X obj 414 157 t b b;
#X floatatom 199 428 5 0 0 0 - - -, f 5;
#X obj 199 451 t b f;
#X floatatom 119 428 5 0 0 0 - - -, f 5;
#X obj 119 451 t b f;
#X text 126 231 audio local local;
#X text 126 301 video local local;
#X obj 108 328 vradio 15 1 0 4 empty empty empty 0 -8 0 10 -262144
-260097 -1 1;
#X floatatom 239 428 5 0 0 0 - - -, f 5;
#X obj 239 451 t b f;
#X text 127 327 video2-slave;
#X text 126 341 video2-local (f);
#X text 126 356 video2-local (b);
#X text 126 371 video2 -local local;
#X obj 109 487 pack f f f f;
#X text 127 133 controler local;
#X obj 368 130 sel 0 1;
#X obj 15 20 r reload;
#X connect 1 0 2 0;
#X connect 2 0 0 0;
#X connect 3 0 4 0;
#X connect 4 0 5 0;
#X connect 4 1 41 1;
#X connect 5 0 41 0;
#X connect 6 0 1 0;
#X connect 7 0 17 0;
#X connect 7 0 30 0;
#X connect 8 0 3 0;
#X connect 11 0 28 0;
#X connect 18 0 21 0;
#X connect 19 0 18 0;
#X connect 20 0 18 0;
#X connect 22 0 18 0;
#X connect 23 0 18 0;
#X connect 24 0 43 0;
#X connect 25 0 24 0;
#X connect 26 0 23 0;
#X connect 26 1 22 0;
#X connect 27 0 20 0;
#X connect 27 1 22 0;
#X connect 28 0 29 0;
#X connect 29 0 5 0;
#X connect 29 1 41 2;
#X connect 30 0 31 0;
#X connect 31 0 5 0;
#X connect 31 1 41 0;
#X connect 34 0 35 0;
#X connect 35 0 36 0;
#X connect 36 0 5 0;
#X connect 36 1 41 3;
#X connect 41 0 6 0;
#X connect 43 0 26 0;
#X connect 43 1 27 0;
#X connect 44 0 5 0;
#X coords 0 -1 1 1 150 300 1 100 100;
#X restore 14 17 pd OSC-connexion;
#N canvas 1180 267 740 593 cadence 0;
#X obj 308 452 s controler-pack;
#X obj 112 452 list prepend send;
#X obj 238 452 list trim;
#X floatatom 112 347 5 0 0 0 - - -, f 5;
#X floatatom 159 348 5 0 0 0 - - -, f 5;
#X obj 159 371 t b f;
#X msg 112 389 bang;
#X obj 112 370 t b f;
#X obj 159 325 i;
#X obj 208 325 i;
#X obj 226 -7 loadbang;
#X msg 226 42 bang;
#X obj 112 407 pack f f f;
#X obj 225 154 tgl 15 0 \$0-on-off-toggle.s \$0-on-off-toggle.r empty
17 7 0 10 -2445 -1 -1 1 1;
#X obj 110 171 hsl 128 15 100 20000 1 0 empty empty empty -2 -8 0 10
-262144 -260097 -260097 1661 1;
#X obj 107 155 nbx 5 14 -1e+37 1e+37 0 0 empty empty empty 0 -8 0 10
-262144 -1 -1 200 256;
#X floatatom 107 189 5 0 0 0 - - -, f 5;
#X text 194 170 cadence;
#X text 185 154 on/off;
#N canvas 1337 436 450 300 set-cadence 0;
#X obj 92 150 outlet;
#X obj 134 150 outlet;
#X obj 92 49 inlet;
#X msg 92 107 1;
#X text 314 51 set ON/OFF 1;
#X text 153 50 SET CADENCE ON START UP;
#X msg 135 107 9000;
#X text 315 69 set CADENCE 9000;
#X connect 2 0 3 0;
#X connect 2 0 6 0;
#X connect 3 0 0 0;
#X connect 6 0 1 0;
#X restore 108 70 pd set-cadence;
#X obj 112 432 oscformat cadence;
#X obj 369 237 s cadence;
#X obj 15 0 r reload;
#X obj 15 84 bng 15 250 50 0 empty empty empty 17 7 0 10 -262144 -1
-1;
#X obj 107 260 s reload;
#X obj 107 212 bng 15 250 50 0 empty empty empty 17 7 0 10 -258113
-1 -1;
#X text 104 276 recharge les parametres;
#X text 123 210 reload-param;
#X connect 1 0 2 0;
#X connect 2 0 0 0;
#X connect 3 0 7 0;
#X connect 4 0 5 0;
#X connect 5 0 6 0;
#X connect 5 1 12 1;
#X connect 6 0 12 0;
#X connect 7 0 6 0;
#X connect 7 1 12 0;
#X connect 8 0 4 0;
#X connect 10 0 11 0;
#X connect 11 0 19 0;
#X connect 12 0 20 0;
#X connect 13 0 3 0;
#X connect 14 0 16 0;
#X connect 14 0 21 0;
#X connect 15 0 14 0;
#X connect 16 0 8 0;
#X connect 19 0 13 0;
#X connect 19 1 15 0;
#X connect 20 0 1 0;
#X connect 22 0 23 0;
#X connect 23 0 12 0;
#X connect 25 0 24 0;
#X coords 0 -1 1 1 150 150 1 100 100;
#X restore 814 173 pd cadence;
#N canvas 2286 96 740 767 sequences 0;
#X obj 308 483 s controler-pack;
#X obj 112 483 list prepend send;
#X obj 238 483 list trim;
#X floatatom 112 437 5 0 0 0 - - -, f 5;
#X obj 227 3 loadbang;
#X msg 227 35 bang;
#X obj 112 462 oscformat sequence;
#X obj 112 122 vradio 15 1 0 8 empty empty empty 0 -8 0 10 -262144
-1 -1 0;
#X text 131 120 id;
#X text 130 135 alt;
#X text 130 150 km;
#X text 130 165 taille;
#X text 130 180 poid;
#X text 130 196 couleur;
#X text 130 211 materiel;
#X text 130 226 origine;
#X msg 227 71 0;
#X obj 15 84 bng 15 250 50 0 empty empty empty 17 7 0 10 -262144 -1
-1;
#X obj 15 30 r reload;
#X connect 1 0 2 0;
#X connect 2 0 0 0;
#X connect 3 0 6 0;
#X connect 4 0 5 0;
#X connect 5 0 16 0;
#X connect 6 0 1 0;
#X connect 7 0 3 0;
#X connect 16 0 7 0;
#X connect 18 0 17 0;
#X coords 0 -1 1 1 150 150 1 100 100;
#X restore 814 17 pd sequences;
#X text 661 380 sh /usr/share/processing/processing-3.4/processing
;
#X text 661 370 Lancer processing dans le terminal;
